<svg xmlns="http://www.w3.org/2000/svg" width="38.418" height="38.418" viewBox="0 0 38.418 38.418">
  <g id="Grupo_79" data-name="Grupo 79" transform="translate(-285 -8570)">
    <path id="Instagram" d="M19.209,38.418A19.209,19.209,0,1,0,0,19.209,19.209,19.209,0,0,0,19.209,38.418Z" transform="translate(285 8570)" fill="#313131" fill-rule="evenodd"/>
    <path id="Trazado_93" data-name="Trazado 93" d="M18.5,20.08H12.692v-.739h0V30.916a3.136,3.136,0,0,0,3.2,3.2H30.916a3.136,3.136,0,0,0,3.2-3.2V20.08h0v-.739H27.838a5.542,5.542,0,0,0-8.867,0h-6.28V15.894a2.915,2.915,0,0,1,2.216-3.041v4.272h.739V12.708h0c.154-.016.246-.016.246-.016H30.916a3.136,3.136,0,0,1,3.2,3.2V20.08H28.307a5.541,5.541,0,1,1-9.8,0ZM30.228,14.17a1.284,1.284,0,0,0-1.282,1.282v1.131a1.284,1.284,0,0,0,1.282,1.282h1.131a1.284,1.284,0,0,0,1.282-1.282V15.452a1.284,1.284,0,0,0-1.282-1.282ZM17.864,12.692v4.433H18.6V12.692Zm-1.478,0v4.433h.739V12.692ZM23.405,27.1a4.433,4.433,0,1,0-4.433-4.433A4.433,4.433,0,0,0,23.405,27.1Zm0-1.478a2.955,2.955,0,1,0-2.955-2.955A2.955,2.955,0,0,0,23.405,25.622Z" transform="translate(281.308 8566.308)" fill="#fff" fill-rule="evenodd"/>
  </g>
</svg>
