<svg xmlns="http://www.w3.org/2000/svg" width="37" height="37" viewBox="0 0 37 37">
  <g id="Grupo_78" data-name="Grupo 78" transform="translate(-233.773 -8569.091)">
    <path id="Linkedin" d="M18.5,37A18.5,18.5,0,1,0,0,18.5,18.5,18.5,0,0,0,18.5,37Z" transform="translate(233.773 8569.091)" fill="#313131" fill-rule="evenodd"/>
    <path id="Trazado_92" data-name="Trazado 92" d="M19.648,33.217V21.932H16.161V33.217Zm0-15.284a1.8,1.8,0,1,0-1.829,1.779h.021A1.721,1.721,0,0,0,19.648,17.933Zm5.69,15.284V26.787a2.616,2.616,0,0,1,.126-.933,2.183,2.183,0,0,1,4.217.933v6.429h3.511v-6.6c0-3.536-1.888-5.182-4.406-5.182a3.811,3.811,0,0,0-3.474,1.94l.025-1.509H21.833c.05,1.08,0,11.352,0,11.352Z" transform="translate(227.62 8562.897)" fill="#fff" fill-rule="evenodd"/>
  </g>
</svg>
