<svg id="Grupo_88" data-name="Grupo 88" xmlns="http://www.w3.org/2000/svg" width="164.466" height="164.466" viewBox="0 0 164.466 164.466">
  <path id="Trazado_10" data-name="Trazado 10" d="M144.874,82.79a5.182,5.182,0,0,0-.64-4.028L114.692,31.986a2.571,2.571,0,0,0-4.347,0l-3.508,5.553L83.854,1.149a2.671,2.671,0,0,0-4.347,0L56.524,37.539l-3.508-5.553a2.671,2.671,0,0,0-4.347,0L19.128,78.762a5.182,5.182,0,0,0-.64,4.028,5.031,5.031,0,0,0,2.444,3.19c.405.227.888.463,1.408.694L11.253,107a5.176,5.176,0,0,0-.374,4.083,5.092,5.092,0,0,0,2.678,3.022c.253.118.576.232.855.35L1.162,135.279A5.127,5.127,0,0,0,2.6,142.289,24.02,24.02,0,0,0,16.237,146.4,32.318,32.318,0,0,0,29.2,143.459a39.266,39.266,0,0,0,9.654,2.63L38,161.708a2.566,2.566,0,0,0,2.565,2.71H55.983a2.566,2.566,0,0,0,2.565-2.71l-.958-17.586a50.668,50.668,0,0,0,6.025-2.483,40,40,0,0,0,4.3,1.96l-1.638,18.016a2.57,2.57,0,0,0,2.56,2.8h25.7a2.57,2.57,0,0,0,2.56-2.8L95.452,143.6a39.974,39.974,0,0,0,4.306-1.97,52.158,52.158,0,0,0,6.018,2.446l-.961,17.628a2.566,2.566,0,0,0,2.565,2.71H122.8a2.566,2.566,0,0,0,2.565-2.71l-.853-15.619a38.449,38.449,0,0,0,9.757-2.579,32.116,32.116,0,0,0,12.846,2.909,24.011,24.011,0,0,0,13.652-4.138,5.126,5.126,0,0,0,1.433-7.007l-13.246-20.818c.277-.117.6-.231.849-.347a5.1,5.1,0,0,0,2.683-3.019,5.178,5.178,0,0,0-.374-4.088L141.021,86.673c.521-.231,1-.467,1.408-.694A5.03,5.03,0,0,0,144.874,82.79ZM81.684,7.332l22.97,36.323a2.465,2.465,0,0,0,.153.243l4.276,6.761c-2.565,1.435-8.036,3.144-15.8-1.516a2.56,2.56,0,0,0-2.863.148A17.243,17.243,0,0,1,81.681,52.2a17.188,17.188,0,0,1-8.738-2.909,2.567,2.567,0,0,0-2.863-.148c-7.77,4.663-13.235,2.949-15.768,1.526ZM101.032,105.7a2.572,2.572,0,0,0-3.032.223c-.07.06-7.15,5.983-16.252,6.229-9.238-.246-16.317-6.168-16.385-6.226a2.567,2.567,0,0,0-3.034-.226c-14.5,9.06-23.151,4.261-26.177,1.784L50.385,85.124a26.2,26.2,0,0,0,4.939.5,32.022,32.022,0,0,0,13.456-3.129,31.775,31.775,0,0,0,12.949,3.117,31.5,31.5,0,0,0,12.854-3.117c7.441,3.419,13.744,3.539,18.417,2.663l14.23,22.327C124.178,109.965,115.537,114.764,101.032,105.7ZM95.679,77.316a2.561,2.561,0,0,0-2.464.093,26.025,26.025,0,0,1-11.486,3.059,26.126,26.126,0,0,1-11.574-3.057,2.562,2.562,0,0,0-2.472-.1c-10.011,5.007-17.522,2.961-21.08,1.3l11.672-21.4a21.975,21.975,0,0,0,13.052-2.88,22.122,22.122,0,0,0,10.294,3h.12a22.122,22.122,0,0,0,10.294-3,23.066,23.066,0,0,0,10.957,3,17.655,17.655,0,0,0,2.081-.153L116.79,78.614C113.206,80.28,105.69,82.323,95.679,77.316ZM5.5,138.038l14.049-22.076a26.189,26.189,0,0,0,4.9.489,29.043,29.043,0,0,0,3.584-.226,2.57,2.57,0,0,0-.637-5.1,21.245,21.245,0,0,1-11.632-1.664l11.694-21.44a17.652,17.652,0,0,0,2.078.154,22.347,22.347,0,0,0,9.551-2.289A2.571,2.571,0,1,0,36.9,81.234c-6.251,2.941-10.771,1.762-13.426.274L50.844,38.17l2.641,4.182-3.519,5.572a5.182,5.182,0,0,0-.64,4.028,5.031,5.031,0,0,0,2.444,3.19c.415.233.884.471,1.4.7L42.09,76.162a5.182,5.182,0,0,0-.374,4.086,5.115,5.115,0,0,0,2.693,3.029c.245.114.566.228.84.343L31.816,104.728a5.13,5.13,0,0,0,1.069,6.733,20.174,20.174,0,0,0,2.95,1.988l-11.683,21.7a5,5,0,0,0-.041,4.78C15.4,142.8,9.264,140.614,5.5,138.038ZM53.27,159.278H43.277l.7-12.835c.037,0,.071,0,.108,0a40.436,40.436,0,0,0,8.436-.922Zm38.447,0H71.645l1.28-14.067a39.539,39.539,0,0,0,8.813,1.216,38.977,38.977,0,0,0,8.7-1.206Zm6.567-22.722a35.393,35.393,0,0,1-16.546,4.731,35.925,35.925,0,0,1-16.661-4.731,2.564,2.564,0,0,0-2.572-.115c-14.648,7.637-26.483,4.843-33.829,1.144l11.958-22.208c5.392,1.458,13.052,1.314,22.892-4.4A34.2,34.2,0,0,0,81.749,117.3a34.018,34.018,0,0,0,18.089-6.312c9.831,5.7,17.493,5.844,22.888,4.388l12,22.271c-5.865,3.019-18.056,6.879-33.884-1.212A2.562,2.562,0,0,0,98.284,136.557Zm11.808,22.722.753-13.822a41.614,41.614,0,0,0,8.536.941l.7,12.881Zm37.543-49.83a21.266,21.266,0,0,1-11.669,1.676,2.57,2.57,0,0,0-.637,5.1,29.043,29.043,0,0,0,3.584.226,26.185,26.185,0,0,0,4.9-.489l14.043,22.079c-3.76,2.578-9.877,4.776-18.56,1.915a5,5,0,0,0-.053-4.751l-11.717-21.757a20.161,20.161,0,0,0,2.948-1.983,5.134,5.134,0,0,0,1.069-6.736L118.127,83.639c.291-.121.567-.243.826-.363a5.115,5.115,0,0,0,2.693-3.029,5.182,5.182,0,0,0-.374-4.086L110.184,55.836c.514-.228,1-.463,1.408-.694a5.031,5.031,0,0,0,2.444-3.19,5.182,5.182,0,0,0-.64-4.028l-3.519-5.572,2.641-4.183L139.92,81.5c-2.683,1.5-7.2,2.685-13.459-.264a2.571,2.571,0,0,0-2.188,4.653,22.348,22.348,0,0,0,9.551,2.289,17.669,17.669,0,0,0,2.081-.154Z" transform="translate(0.552 0.048)" fill="#008351"/>
  <path id="Trazado_11" data-name="Trazado 11" d="M71.273,12a8.994,8.994,0,0,0,0,17.988,2.57,2.57,0,1,0,0-5.14,3.855,3.855,0,0,1,0-7.709A6.43,6.43,0,0,1,77.7,23.564,9.005,9.005,0,0,1,68.7,32.558H54.57a2.57,2.57,0,0,0,0,5.14H68.7A14.151,14.151,0,0,0,82.837,23.564,11.577,11.577,0,0,0,71.273,12Z" transform="translate(81.629 18.837)" fill="#008351"/>
  <path id="Trazado_12" data-name="Trazado 12" d="M7,23.128A2.568,2.568,0,0,0,9.57,25.7H39.122A14.151,14.151,0,0,0,53.256,11.564,11.577,11.577,0,0,0,41.692,0a8.994,8.994,0,1,0,0,17.988,2.57,2.57,0,0,0,0-5.14,3.855,3.855,0,1,1,0-7.709,6.43,6.43,0,0,1,6.424,6.424,9.005,9.005,0,0,1-8.994,8.994H9.57A2.568,2.568,0,0,0,7,23.128Z" transform="translate(10.988)" fill="#008351"/>
  <path id="Trazado_13" data-name="Trazado 13" d="M78.977,11.564A11.577,11.577,0,0,0,67.413,0a8.994,8.994,0,0,0,0,17.988,2.57,2.57,0,1,0,0-5.14,3.855,3.855,0,0,1,0-7.709,6.43,6.43,0,0,1,6.424,6.424,9.005,9.005,0,0,1-8.994,8.994H45.57a2.57,2.57,0,0,0,0,5.14H64.843A14.151,14.151,0,0,0,78.977,11.564Z" transform="translate(67.501)" fill="#008351"/>
  <path id="Trazado_14" data-name="Trazado 14" d="M0,28.419a2.568,2.568,0,0,0,2.57,2.57H20.558A10.289,10.289,0,0,0,30.837,20.709a7.709,7.709,0,0,0-15.419,0,2.57,2.57,0,0,0,5.14,0,2.57,2.57,0,1,1,5.14,0,5.146,5.146,0,0,1-5.14,5.14H2.57A2.568,2.568,0,0,0,0,28.419Z" transform="translate(0 20.407)" fill="#008351"/>
</svg>
