<svg xmlns="http://www.w3.org/2000/svg" viewBox="0 0 187.23 187.01"><defs><style>.cls-1{fill:#efefef;opacity:0;}.cls-2{fill:#008351;}</style></defs><g id="Capa_2" data-name="Capa 2"><g id="Capa_1-2" data-name="Capa 1"><rect class="cls-1" x="0.11" width="187.01" height="187.01"/><g id="Grupo_84" data-name="Grupo 84"><path id="Trazado_15" data-name="Trazado 15" class="cls-2" d="M33.74,48.84a2.31,2.31,0,0,1-2.08-1.25c-1-1.88-4.17-7.29-7.71-8.12a4.63,4.63,0,0,0-3.33.62,2.4,2.4,0,0,1-2.71-4h0a8.46,8.46,0,0,1,7.29-1.45c2.71.62,5.42,2.7,7.92,6,.2.2.41.41.41.62,1.46-2.29,3.33-4.79,6.25-6a11.13,11.13,0,0,1,9-.21,2.44,2.44,0,0,1-1.58,4.62l-.09,0a7.53,7.53,0,0,0-5.21,0c-4,1.88-5.83,7.5-5.83,7.5a2.12,2.12,0,0,1-2.29,1.67Z"/></g><g id="Grupo_85" data-name="Grupo 85"><path id="Trazado_16" data-name="Trazado 16" class="cls-2" d="M184.73,148.18H176.4L165.78,84.45a1.59,1.59,0,0,0-.42-1L150,67.58l9.79-9.79a1.76,1.76,0,0,0,.62-1.25L162,49.05a2.45,2.45,0,0,0-4.79-1l-1.46,6.88-8.95,8.95-11-13.74a2.12,2.12,0,0,0-1-.84L111.42,42a2.37,2.37,0,0,0-1.66,0L91.84,49.05a2.22,2.22,0,0,0-1.37,2.83,1.85,1.85,0,0,0,.13.29,2.21,2.21,0,0,0,2.83,1.37,1.78,1.78,0,0,0,.29-.12l17.08-6.87,21.86,6.87L143.49,67l-3.12,3.12a2.33,2.33,0,0,0,0,3.33,2.54,2.54,0,0,0,3.33,0l2.92-2.91,14.57,14.78,10.42,62.27H145a13.23,13.23,0,0,0,5-8.12h8.33a2.31,2.31,0,0,0,2.29-2.29V116.31a2.31,2.31,0,0,0-2.29-2.29h-6.45l-9.38-14.57a2.58,2.58,0,0,0-2.08-1H121.21V94.65h18.33a2.31,2.31,0,0,0,2.29-2.29v-10a2.31,2.31,0,0,0-2.29-2.29H71.85c-11.66,0-22.49,3.74-30.4,10.62s-12.29,16-12.29,25.82V138a2.31,2.31,0,0,0,2.29,2.29H42.07a13.3,13.3,0,0,0,5,8.13H12.71L16.45,104,33.12,84.86a1.56,1.56,0,0,0,.41-.83L40.4,62.79,62.69,48.42l20.2,8.33,21.24,13.54a2.4,2.4,0,1,0,2.71-4h0L85.6,52.59c-.21,0-.21-.21-.42-.21l-21.66-9a3,3,0,0,0-2.29.21L37.28,59a3.77,3.77,0,0,0-1,1.46L29.16,82.16,26.24,85.7l-2.5-4.17A2.79,2.79,0,0,0,20,80.39l-.17.1-5.63,3.34A3.05,3.05,0,0,0,13.33,88L17.7,95.7l-5.41,6.24a1.93,1.93,0,0,0-.63,1.46L7.92,148.18H2.29a2.29,2.29,0,0,0,0,4.58H184.94a2.31,2.31,0,0,0,2.29-2.29,2.37,2.37,0,0,0-2.43-2.3ZM139.12,103l9.37,14.58a2.55,2.55,0,0,0,2.08,1H156v16.66h-6A13,13,0,0,0,137,124.64a13.2,13.2,0,0,0-12.92,10.63H121V103ZM41.86,135.27H33.74v-19A28.84,28.84,0,0,1,44.36,94.24a42.21,42.21,0,0,1,27.28-9.58h65.6v5.2H118.92a2.32,2.32,0,0,0-2.29,2.3v43.11H93.1a13,13,0,0,0-12.92-10.63,13.19,13.19,0,0,0-12.91,10.63,12.91,12.91,0,0,0-25.41,0Zm12.92,10.62a8.33,8.33,0,1,1,8.33-8.33h0A8.37,8.37,0,0,1,54.78,145.89Zm7.7,2.29a13.3,13.3,0,0,0,5-8.12,13.26,13.26,0,0,0,5,8.12Zm17.91-2.29a8.33,8.33,0,1,1,8.33-8.33,8.33,8.33,0,0,1-8.33,8.33Zm7.71,2.29a13.29,13.29,0,0,0,5-8.12h31.24a13.35,13.35,0,0,0,5,8.12Zm49.15-2.29a8.33,8.33,0,1,1,8.33-8.33h0a8.37,8.37,0,0,1-8.34,8.33Z"/><path id="Trazado_17" data-name="Trazado 17" class="cls-2" d="M65.61,93a2.33,2.33,0,0,0-3.29.15l0,.06L43.74,113a2.33,2.33,0,0,0,.15,3.29l.06,0a2.38,2.38,0,0,0,1.66.63,1.88,1.88,0,0,0,1.67-.84L65.81,96.32A2.81,2.81,0,0,0,65.61,93Z"/><path id="Trazado_18" data-name="Trazado 18" class="cls-2" d="M61.86,116.31a2.38,2.38,0,0,0,1.66.63,1.88,1.88,0,0,0,1.67-.84L83.72,96.32a2.36,2.36,0,0,0-3.54-3.12h0L61.65,113A2.55,2.55,0,0,0,61.86,116.31Z"/><path id="Trazado_19" data-name="Trazado 19" class="cls-2" d="M126.63,116.94H142c.41,0,.83-.21.83-.63a.94.94,0,0,0,0-1l-5.21-8.33a.84.84,0,0,0-.83-.42h-10.2a1,1,0,0,0-1,.93v8.45a1,1,0,0,0,.93,1Z"/></g></g></g></svg>