<svg xmlns="http://www.w3.org/2000/svg" xmlns:xlink="http://www.w3.org/1999/xlink" width="179.268" height="179.349" viewBox="0 0 179.268 179.349">
  <defs>
    <clipPath id="clip-path">
      <rect width="179.268" height="179.349" fill="none"/>
    </clipPath>
  </defs>
  <g id="Cuadrícula_de_repetición_1" data-name="Cuadrícula de repetición 1" clip-path="url(#clip-path)">
    <g id="Grupo_90" data-name="Grupo 90" transform="translate(-5.904 -958.362)">
      <path id="Trazado_20" data-name="Trazado 20" d="M46.48,958.378a4.069,4.069,0,0,0-3.18,1.911C39.017,967.3,34.4,975,30.773,982.451s-6.359,14.589-6.359,21.206c0,11.421,10.413,19.933,22.384,19.933s22.384-8.512,22.384-19.933c0-6.617-2.732-13.76-6.359-21.206S54.578,967.3,50.295,960.289a4.069,4.069,0,0,0-3.815-1.91Zm.318,12.354c3.061,5.133,6.294,10.319,8.712,15.284,3.394,6.968,5.532,13.492,5.532,17.64,0,6.417-5.986,11.781-14.244,11.781s-14.244-5.364-14.244-11.781c0-4.149,2.139-10.672,5.532-17.64,2.418-4.965,5.651-10.151,8.712-15.284Zm109.567,5.986a4.07,4.07,0,0,0-3.18,1.911c-4.283,7.015-8.9,14.716-12.527,22.162S134.3,1015.38,134.3,1022c0,11.421,10.413,19.933,22.384,19.933s22.384-8.512,22.384-19.933c0-6.617-2.732-13.76-6.359-21.206s-8.244-15.147-12.527-22.162a4.069,4.069,0,0,0-3.815-1.911Zm.318,12.355c3.061,5.133,6.294,10.319,8.712,15.284,3.394,6.968,5.532,13.492,5.532,17.64,0,6.417-5.986,11.781-14.244,11.781s-14.244-5.364-14.244-11.781c0-4.148,2.139-10.672,5.532-17.64C150.389,999.392,153.622,994.206,156.683,989.073ZM95.317,999.135a4.07,4.07,0,0,0-3.116,1.911c-6.183,10.014-12.871,20.987-18.06,31.523s-9.03,20.547-9.03,29.485c0,.806.114,1.635.191,2.42a23.489,23.489,0,0,0-10.238,2.8c-3.041,1.741-5.639,4.591-6.1,8.215a4.076,4.076,0,0,0-.064.446c0,.043,0,.084,0,.126a4.084,4.084,0,0,0-.064.509c0,.324-.3,1.2-2.1,2.229a17.107,17.107,0,0,1-8.076,1.847,17.107,17.107,0,0,1-8.076-1.847c-1.8-1.032-2.1-1.905-2.1-2.229,0-.135.006-.249,0-.382a4.081,4.081,0,0,0-.127-.828c-.511-3.562-3.1-6.368-6.1-8.088a24.329,24.329,0,0,0-12.082-2.929q-.191-.009-.382,0a4.08,4.08,0,0,0,.382,8.151,17.105,17.105,0,0,1,8.076,1.847c1.8,1.032,2.1,1.906,2.1,2.229a4.083,4.083,0,0,0,.064.828c.353,3.771,3.043,6.681,6.168,8.47a24.328,24.328,0,0,0,12.082,2.929,24.329,24.329,0,0,0,12.082-2.929c3.037-1.738,5.634-4.535,6.1-8.151a4.08,4.08,0,0,0,.064-.509c.008-.108.06-.21.064-.319s0-.212,0-.318c0-.323.3-1.2,2.1-2.229a17.11,17.11,0,0,1,8.076-1.847q.191.009.382,0c4.681,9.77,15.7,16.3,28.107,16.3s23.426-6.533,28.107-16.3q.191.009.382,0a17.107,17.107,0,0,1,8.076,1.847c1.8,1.032,2.1,1.906,2.1,2.229a4.084,4.084,0,0,0,.064.828c.353,3.771,3.043,6.681,6.168,8.47a26.382,26.382,0,0,0,24.165,0c3.037-1.738,5.634-4.535,6.1-8.151a4.078,4.078,0,0,0,.064-.509c.008-.108.06-.21.064-.319s0-.212,0-.318c0-.323.3-1.2,2.1-2.229a17.11,17.11,0,0,1,8.076-1.847,4.076,4.076,0,0,0,0-8.152,24.334,24.334,0,0,0-12.082,2.93c-3.041,1.741-5.639,4.59-6.1,8.215a4.084,4.084,0,0,0-.064.446c0,.043,0,.083,0,.126a4.08,4.08,0,0,0-.064.509c0,.324-.3,1.2-2.1,2.229a18.579,18.579,0,0,1-16.152,0c-1.8-1.032-2.1-1.905-2.1-2.229,0-.134.006-.249,0-.382a4.079,4.079,0,0,0-.127-.828c-.511-3.562-3.1-6.368-6.1-8.088a23.49,23.49,0,0,0-10.238-2.8c.077-.785.191-1.614.191-2.42,0-8.938-3.841-18.949-9.03-29.486s-11.877-21.51-18.06-31.523a4.069,4.069,0,0,0-3.752-1.911Zm.318,11.909c5.08,8.329,10.148,16.9,14.181,25.091,4.952,10.056,8.2,19.477,8.2,25.919,0,10.212-9.61,18.6-22.384,18.6s-22.384-8.384-22.384-18.6c0-6.442,3.251-15.863,8.2-25.919,4.033-8.189,9.1-16.763,14.181-25.091Zm-10.62,51.2a4.077,4.077,0,0,0-2.416,7.005,18.719,18.719,0,0,0,26.072,0,4.073,4.073,0,1,0-5.724-5.8c-1.729,1.733-2.867,2.93-7.312,2.93-4.637,0-5.507-1.121-7.313-2.929a4.067,4.067,0,0,0-3.307-1.21ZM9.788,1088.8a4.08,4.08,0,0,0,.382,8.152,17.1,17.1,0,0,1,8.076,1.847c1.8,1.032,2.1,1.905,2.1,2.229a4.083,4.083,0,0,0,.064.828c.353,3.771,3.043,6.681,6.168,8.47a24.33,24.33,0,0,0,12.082,2.93,24.33,24.33,0,0,0,12.082-2.93c3.037-1.738,5.634-4.535,6.1-8.152a4.077,4.077,0,0,0,.064-.509c.008-.108.06-.21.064-.319s0-.212,0-.318c0-.324.3-1.2,2.1-2.229a17.107,17.107,0,0,1,8.076-1.847,17.1,17.1,0,0,1,8.076,1.847c1.8,1.032,2.1,1.905,2.1,2.229a4.082,4.082,0,0,0,.064.828c.353,3.771,3.043,6.681,6.168,8.47a24.33,24.33,0,0,0,12.082,2.93,24.33,24.33,0,0,0,12.082-2.93c3.037-1.738,5.634-4.535,6.1-8.152a4.084,4.084,0,0,0,.064-.509c.008-.108.06-.21.064-.319s0-.212,0-.318c0-.324.3-1.2,2.1-2.229a18.581,18.581,0,0,1,16.152,0c1.8,1.032,2.1,1.905,2.1,2.229a4.084,4.084,0,0,0,.064.828c.353,3.771,3.043,6.681,6.168,8.47a26.38,26.38,0,0,0,24.165,0c3.037-1.738,5.634-4.535,6.1-8.152a4.083,4.083,0,0,0,.064-.509c.008-.108.06-.21.064-.319s0-.212,0-.318c0-.324.295-1.2,2.1-2.229a17.107,17.107,0,0,1,8.076-1.847,4.076,4.076,0,0,0,0-8.152,24.333,24.333,0,0,0-12.082,2.93c-3.041,1.74-5.639,4.59-6.1,8.215a4.08,4.08,0,0,0-.064.446c0,.045,0,.084,0,.126a4.1,4.1,0,0,0-.064.51c0,.324-.3,1.2-2.1,2.229a18.58,18.58,0,0,1-16.152,0c-1.8-1.032-2.1-1.905-2.1-2.229,0-.135.006-.249,0-.382a4.08,4.08,0,0,0-.127-.828c-.511-3.562-3.1-6.368-6.1-8.088a26.38,26.38,0,0,0-24.165,0c-3.041,1.74-5.639,4.59-6.1,8.215a4.063,4.063,0,0,0-.064.446c0,.045,0,.083,0,.126a4.087,4.087,0,0,0-.064.51c0,.324-.3,1.2-2.1,2.229a18.578,18.578,0,0,1-16.152,0c-1.8-1.032-2.1-1.905-2.1-2.229,0-.135.006-.249,0-.382a4.08,4.08,0,0,0-.127-.828c-.511-3.562-3.1-6.368-6.1-8.088a24.331,24.331,0,0,0-12.082-2.929,24.331,24.331,0,0,0-12.082,2.929c-3.041,1.74-5.639,4.591-6.1,8.215a4.092,4.092,0,0,0-.064.446c0,.045,0,.084,0,.127a4.089,4.089,0,0,0-.064.509c0,.324-.3,1.2-2.1,2.229a17.108,17.108,0,0,1-8.076,1.847,17.108,17.108,0,0,1-8.076-1.847c-1.8-1.032-2.1-1.905-2.1-2.229,0-.135.006-.249,0-.382a4.083,4.083,0,0,0-.127-.828c-.511-3.562-3.1-6.368-6.1-8.088a24.33,24.33,0,0,0-12.082-2.929q-.191-.009-.382,0Zm0,24.455a4.08,4.08,0,0,0,.382,8.152,17.1,17.1,0,0,1,8.076,1.847c1.8,1.032,2.1,1.905,2.1,2.229a4.08,4.08,0,0,0,.064.828c.353,3.771,3.043,6.682,6.168,8.47a24.331,24.331,0,0,0,12.082,2.929,24.331,24.331,0,0,0,12.082-2.929c3.037-1.738,5.634-4.535,6.1-8.151a4.091,4.091,0,0,0,.064-.51c.008-.108.06-.21.064-.318s0-.212,0-.318c0-.324.3-1.2,2.1-2.229a17.107,17.107,0,0,1,8.076-1.847,17.107,17.107,0,0,1,8.076,1.847c1.8,1.032,2.1,1.905,2.1,2.229a4.081,4.081,0,0,0,.064.828c.353,3.771,3.043,6.682,6.168,8.47a24.331,24.331,0,0,0,12.082,2.929,24.331,24.331,0,0,0,12.082-2.929c3.037-1.738,5.634-4.535,6.1-8.151a4.088,4.088,0,0,0,.064-.51c.008-.108.06-.21.064-.318s0-.212,0-.318c0-.324.3-1.2,2.1-2.229a18.582,18.582,0,0,1,16.152,0c1.8,1.032,2.1,1.905,2.1,2.229a4.081,4.081,0,0,0,.064.828c.353,3.771,3.043,6.682,6.168,8.47a26.381,26.381,0,0,0,24.165,0c3.037-1.738,5.634-4.535,6.1-8.151a4.088,4.088,0,0,0,.064-.51c.008-.108.06-.21.064-.318s0-.212,0-.318c0-.324.295-1.2,2.1-2.229a17.107,17.107,0,0,1,8.076-1.847,4.076,4.076,0,0,0,0-8.152,24.334,24.334,0,0,0-12.082,2.929c-3.041,1.741-5.639,4.591-6.1,8.215a4.078,4.078,0,0,0-.064.446c0,.045,0,.084,0,.126a4.094,4.094,0,0,0-.064.509c0,.324-.3,1.2-2.1,2.229a18.58,18.58,0,0,1-16.152,0c-1.8-1.032-2.1-1.905-2.1-2.229,0-.135.006-.249,0-.382a4.081,4.081,0,0,0-.127-.828c-.511-3.562-3.1-6.368-6.1-8.088a26.382,26.382,0,0,0-24.165,0c-3.041,1.741-5.639,4.591-6.1,8.215a4.063,4.063,0,0,0-.064.446c0,.045,0,.083,0,.126a4.076,4.076,0,0,0-.064.509c0,.324-.3,1.2-2.1,2.229a18.579,18.579,0,0,1-16.152,0c-1.8-1.032-2.1-1.905-2.1-2.229,0-.135.006-.249,0-.382a4.083,4.083,0,0,0-.127-.828c-.511-3.562-3.1-6.368-6.1-8.088a24.332,24.332,0,0,0-12.082-2.929,24.332,24.332,0,0,0-12.082,2.929c-3.041,1.741-5.639,4.591-6.1,8.215a4.071,4.071,0,0,0-.064.446c0,.045,0,.084,0,.126a4.079,4.079,0,0,0-.064.509c0,.324-.3,1.2-2.1,2.229a17.107,17.107,0,0,1-8.076,1.847,17.107,17.107,0,0,1-8.076-1.847c-1.8-1.032-2.1-1.905-2.1-2.229,0-.135.006-.249,0-.382a4.081,4.081,0,0,0-.127-.828c-.511-3.562-3.1-6.368-6.1-8.088a24.331,24.331,0,0,0-12.082-2.929q-.191-.009-.382,0Z" transform="translate(0 0)" fill="#008351"/>
    </g>
  </g>
</svg>
