<svg id="Grupo_92" data-name="Grupo 92" xmlns="http://www.w3.org/2000/svg" width="168.082" height="168.081" viewBox="0 0 168.082 168.081">
  <path id="Trazado_28" data-name="Trazado 28" d="M60.457,132.6h.661a12.839,12.839,0,0,0,24.572,0h.66a7.105,7.105,0,0,0,7.1-7.1v-5.172a3.714,3.714,0,0,0,3.289-3.682v-.764a44.89,44.89,0,0,1,8.316-26.727A39.182,39.182,0,0,0,75.87,26.964a38.83,38.83,0,0,0-29.3,10.557A39.184,39.184,0,0,0,41.2,88.377a48.229,48.229,0,0,1,8.869,27.506v.767a3.714,3.714,0,0,0,3.291,3.682V125.5A7.1,7.1,0,0,0,60.457,132.6ZM62.14,84.3H60.38V81.726a3.107,3.107,0,0,1,1.76-2.8Zm7.452,7.452h7.622v21.172H69.592Zm-3.726,28.624H86v4.771H60.812v-4.771ZM73.4,134.258a5.36,5.36,0,0,1-3.872-1.659h7.744A5.36,5.36,0,0,1,73.4,134.258ZM47.324,84.132a31.725,31.725,0,1,1,51.707.631,51.774,51.774,0,0,0-9.674,28.161H84.666V91.752h5.485a3.727,3.727,0,0,0,3.726-3.726v-6.3A10.565,10.565,0,0,0,83.324,71.172H80.94A3.727,3.727,0,0,0,77.214,74.9v9.4H69.592V74.9a3.726,3.726,0,0,0-3.726-3.726H63.483A10.567,10.567,0,0,0,52.928,81.726v6.3a3.726,3.726,0,0,0,3.726,3.726H62.14v21.172h-4.7A55.974,55.974,0,0,0,47.324,84.132Zm37.342.167V78.929a3.106,3.106,0,0,1,1.759,2.8V84.3Z" transform="translate(10.639 -0.259)" fill="#008351"/>
  <path id="Trazado_29" data-name="Trazado 29" d="M149.862,32.452a3.726,3.726,0,0,0,0-7.452H128.515a3.727,3.727,0,0,0-3.726,3.726v20.26a3.726,3.726,0,0,0,7.452,0V37.215A76.577,76.577,0,0,1,74.178,163.688a75.875,75.875,0,0,1-35.034-8.476,3.727,3.727,0,0,0-3.42,6.622A84.013,84.013,0,0,0,137.971,32.452Z" transform="translate(9.864 -3.059)" fill="#008351"/>
  <path id="Trazado_30" data-name="Trazado 30" d="M45.095,132.914a3.726,3.726,0,0,0-3.726,3.726v12.553A76.59,76.59,0,0,1,129.851,29.572a3.727,3.727,0,0,0,2.892-6.87A84.019,84.019,0,0,0,36.014,154.389H25.068a3.726,3.726,0,1,0,0,7.452H45.095a3.726,3.726,0,0,0,3.726-3.726V136.64A3.726,3.726,0,0,0,45.095,132.914Z" transform="translate(-16.166 -16.167)" fill="#008351"/>
</svg>
