<svg xmlns="http://www.w3.org/2000/svg" width="187.012" height="187.011" viewBox="0 0 187.012 187.011">
  <g id="Grupo_82" data-name="Grupo 82" transform="translate(-0.53 -280.596)">
    <path id="Trazado_9" data-name="Trazado 9" d="M94.036,280.6a93.206,93.206,0,0,0-38.608,8.31c-3.789,1.718-1.214,7.4,2.575,5.68a87.2,87.2,0,0,1,104.738,133.16,3.121,3.121,0,0,0,.317,4.176l7.616,7.64H147v-23.65l7.177,7.153c2.946,3.051,7.463-1.491,4.4-4.42L146.1,406.177a3.125,3.125,0,0,0-5.314,2.209v34.28a3.117,3.117,0,0,0,3.1,3.129h34.279a3.117,3.117,0,0,0,2.21-5.315l-11.049-11.091A93.391,93.391,0,0,0,94.036,280.6Zm0,12.473a80.832,80.832,0,0,0-33.019,6.995c-3.911,1.646-1.311,7.5,2.532,5.7A74.835,74.835,0,0,1,160.781,407.9c-2.179,3.788,3.757,6.818,5.546,2.831A81.048,81.048,0,0,0,94.036,293.07ZM9.869,302.408a3.117,3.117,0,0,0-2.21,5.314l11.055,11.092A93.494,93.494,0,0,0,132.619,459.3c3.789-1.718,1.215-7.4-2.575-5.686A87.275,87.275,0,0,1,25.24,320.4a3.126,3.126,0,0,0-.256-4.134l-7.591-7.622H41.049V332.3l-7.183-7.159c-2.946-3.05-7.462,1.49-4.4,4.42l12.474,12.473a3.117,3.117,0,0,0,5.339-2.21V305.535a3.117,3.117,0,0,0-3.129-3.129ZM24.363,335.75a3.129,3.129,0,0,0-2.642,1.723,81.086,81.086,0,0,0,105.31,110.673c3.807-1.688,1.274-7.4-2.532-5.71A74.835,74.835,0,0,1,27.267,340.3a3.117,3.117,0,0,0-2.9-4.554Zm16.7,13.417a3.117,3.117,0,0,0-3.1,3.1,40.52,40.52,0,0,0,40.519,40.544h6.185v21.812c0,4.157,6.24,4.157,6.24,0V389.686A34.137,34.137,0,0,1,125.186,355.4h18.6a34.132,34.132,0,0,1-34.127,31.181h-9.363a3.116,3.116,0,0,0-3.129,3.1l-.031,24.941c0,4.157,6.234,4.157,6.234,0l.031-21.812h6.258a40.52,40.52,0,0,0,40.519-40.544,3.089,3.089,0,0,0-3.153-3.1H125.186a40.477,40.477,0,0,0-40.367,37.415H78.482A34.132,34.132,0,0,1,44.355,355.4h18.5a34.128,34.128,0,0,1,20.089,6.465c3.4,2.587,7.172-2.663,3.634-5.059a40.374,40.374,0,0,0-23.723-7.64Zm17.465,12.425a3.128,3.128,0,0,0-2.575,4.785,30.275,30.275,0,0,0,11.688,11.39c3.8,2.225,6.861-3.778,2.825-5.546a24.169,24.169,0,0,1-9.2-9.113,3.169,3.169,0,0,0-2.739-1.516Zm70.976,0a3.177,3.177,0,0,0-2.642,1.516,24.184,24.184,0,0,1-9.2,9.089c-3.7,1.9-.842,7.449,2.855,5.546a30.244,30.244,0,0,0,11.664-11.366,3.128,3.128,0,0,0-2.672-4.785Z" transform="translate(0 0)" fill="#008351"/>
  </g>
</svg>
