<svg id="Grupo_86" data-name="Grupo 86" xmlns="http://www.w3.org/2000/svg" width="256.882" height="162.596" viewBox="0 0 256.882 162.596">
  <g id="Grupo_84" data-name="Grupo 84" transform="translate(23.109)">
    <path id="Trazado_15" data-name="Trazado 15" d="M36.369,41.508a3.143,3.143,0,0,1-2.857-1.714c-1.429-2.572-5.715-10-10.572-11.144a6.352,6.352,0,0,0-4.572.857,3.289,3.289,0,0,1-3.715-5.429,11.631,11.631,0,0,1,10-2c3.715.857,7.429,3.715,10.858,8.287.286.286.571.571.571.857,2-3.143,4.572-6.572,8.572-8.287a15.264,15.264,0,0,1,12.287-.286,3.345,3.345,0,1,1-2.286,6.286,10.235,10.235,0,0,0-7.144,0c-5.429,2.572-8,10.287-8,10.287a2.89,2.89,0,0,1-3.143,2.286Z" transform="translate(-13.187 -21.497)" fill="#008351"/>
  </g>
  <g id="Grupo_85" data-name="Grupo 85" transform="translate(0 10.367)">
    <path id="Trazado_16" data-name="Trazado 16" d="M258.553,171.068h-11.43L232.551,83.631a2.183,2.183,0,0,0-.571-1.429L210.835,60.486l13.43-13.43a2.47,2.47,0,0,0,.857-1.714l2.286-10.287a3.363,3.363,0,0,0-6.572-1.429l-2,9.43L206.548,55.342,191.4,36.483a2.853,2.853,0,0,0-1.429-1.143l-32-10a3.155,3.155,0,0,0-2.286,0l-24.574,9.715a3.053,3.053,0,0,0-1.714,4.286,3.053,3.053,0,0,0,4.286,1.714l23.431-9.429,30,9.429,14.859,18.573-4.286,4.286c-1.143,1.143-1.429,3.429,0,4.572a3.477,3.477,0,0,0,4.572,0l4-4,20,20.288,14.287,85.437H203.977a18.224,18.224,0,0,0,6.858-11.144h11.43a3.171,3.171,0,0,0,3.143-3.143V127.349a3.171,3.171,0,0,0-3.143-3.143h-8.858l-12.858-20a3.517,3.517,0,0,0-2.857-1.429H171.4V97.632h25.145a3.171,3.171,0,0,0,3.143-3.143V80.773a3.171,3.171,0,0,0-3.143-3.143H103.681c-16,0-30.86,5.143-41.718,14.573s-16.859,22-16.859,35.432v29.431a3.171,3.171,0,0,0,3.143,3.143H62.82a18.224,18.224,0,0,0,6.858,11.144H22.53l5.143-60.863L50.533,84.2a2.166,2.166,0,0,0,.571-1.143l9.429-29.146L91.108,34.2l27.717,11.43L147.971,64.2a3.289,3.289,0,1,0,3.715-5.429L122.54,39.912c-.286,0-.286-.286-.571-.286L92.251,27.339a4.139,4.139,0,0,0-3.143.286L56.248,48.77a5.125,5.125,0,0,0-1.429,2L45.1,80.488l-4,4.858L37.675,79.63A3.835,3.835,0,0,0,32.246,78.2L24.53,82.774a4.2,4.2,0,0,0-1.143,5.715l6,10.572-7.429,8.572a2.594,2.594,0,0,0-.857,2l-5.143,61.435H8.243a3.143,3.143,0,1,0,0,6.286h250.6a3.171,3.171,0,0,0,3.143-3.143A3.243,3.243,0,0,0,258.553,171.068Zm-62.578-62.006,12.858,20a3.517,3.517,0,0,0,2.857,1.429h7.429v22.859h-8.287a17.857,17.857,0,0,0-17.716-14.573A18.087,18.087,0,0,0,175.4,153.352h-4.286v-44.29ZM62.534,153.352H51.39v-26c0-11.43,5.143-22.288,14.573-30.289,9.715-8.287,23.145-13.144,37.432-13.144H193.4V91.06H168.259a3.171,3.171,0,0,0-3.143,3.143v59.149H132.827a17.857,17.857,0,0,0-17.716-14.573,18.087,18.087,0,0,0-17.716,14.573,17.71,17.71,0,0,0-34.861,0ZM80.25,167.925A11.43,11.43,0,1,1,91.68,156.5,11.463,11.463,0,0,1,80.25,167.925Zm10.572,3.143a18.224,18.224,0,0,0,6.858-11.144,18.224,18.224,0,0,0,6.858,11.144Zm24.574-3.143a11.43,11.43,0,1,1,11.43-11.43A11.463,11.463,0,0,1,115.4,167.925Zm10.572,3.143a18.224,18.224,0,0,0,6.858-11.144h42.861a18.224,18.224,0,0,0,6.858,11.144Zm67.435-3.143a11.43,11.43,0,1,1,11.43-11.43A11.463,11.463,0,0,1,193.4,167.925Z" transform="translate(-5.1 -25.125)" fill="#008351"/>
    <path id="Trazado_17" data-name="Trazado 17" d="M56.639,50.236a3.19,3.19,0,0,0-4.572.286L26.636,77.667a3.19,3.19,0,0,0,.286,4.572,3.245,3.245,0,0,0,2.286.857,2.6,2.6,0,0,0,2.286-1.143L56.925,54.808A3.848,3.848,0,0,0,56.639,50.236Z" transform="translate(33.37 19.985)" fill="#008351"/>
    <path id="Trazado_18" data-name="Trazado 18" d="M35.459,82.239a3.245,3.245,0,0,0,2.286.857,2.6,2.6,0,0,0,2.286-1.143L65.462,54.808A3.239,3.239,0,0,0,60.6,50.522L35.173,77.667C34.03,78.81,34.316,80.81,35.459,82.239Z" transform="translate(49.407 19.985)" fill="#008351"/>
    <path id="Trazado_19" data-name="Trazado 19" d="M66.829,70.487H87.974c.571,0,1.143-.286,1.143-.857a1.276,1.276,0,0,0,0-1.429l-7.144-11.43A1.141,1.141,0,0,0,80.83,56.2h-14A1.35,1.35,0,0,0,65.4,57.629v11.43A1.35,1.35,0,0,0,66.829,70.487Z" transform="translate(106.903 32.594)" fill="#008351"/>
  </g>
</svg>
