<svg xmlns="http://www.w3.org/2000/svg" viewBox="0 0 187.01 187.01"><defs><style>.cls-1{fill:#efefef;opacity:0;}.cls-2{fill:#008351;}</style></defs><g id="Capa_2" data-name="Capa 2"><g id="Capa_1-2" data-name="Capa 1"><rect class="cls-1" width="187.01" height="187.01"/><path id="Trazado_21" data-name="Trazado 21" class="cls-2" d="M185.91,124.26a3.08,3.08,0,0,0-3.08-3.08h-6.32a46.22,46.22,0,0,0-46-43.12h-3.39A15.43,15.43,0,0,0,112,65.74h-6.16a3.07,3.07,0,0,0-3.08,3.08,15.28,15.28,0,0,0,3.15,9.24H93.5V67L104,56.5h4.89A9.24,9.24,0,0,0,109.08,38h-.17a9.24,9.24,0,0,0-18.48,0v4.89L79.91,53.42H56.54a36.85,36.85,0,0,0-34.8,49.28H13.43a3.08,3.08,0,0,0-3.08,3.08h0v15.4H4.18a3.08,3.08,0,0,0-3.08,3.08h0A21.6,21.6,0,0,0,16.5,144.9v4a9.24,9.24,0,0,0,9.24,9.24H161.27a9.24,9.24,0,0,0,9.24-9.24v-4A21.6,21.6,0,0,0,185.91,124.26Zm-15.52-3.08h-43v-37h3.08A40.1,40.1,0,0,1,170.39,121.18Zm-61.48,0a6.16,6.16,0,1,1,0-12.32h12.33v12.32Zm-67.7-20.53a15.12,15.12,0,0,1-.9-1.49l-.15-.24c-.3-.6-.58-1.21-.82-1.83-.07-.18-.13-.37-.19-.55-.17-.46-.31-.93-.44-1.39-.06-.23-.11-.45-.17-.68-.1-.46-.19-.92-.26-1.41l-.09-.61A18.39,18.39,0,0,1,59.08,72.09l.78.14c.56.11,1.12.23,1.68.38.29.08.57.17.86.27.51.17,1,.37,1.51.58.27.12.54.23.8.37.53.25,1,.54,1.55.85l.61.37a18,18,0,0,1,1.95,1.5l.22.21c.53.49,1,1,1.51,1.54.17.21.33.43.5.65s.43.58.64.88c-.41.11-.82.26-1.23.39L69,80.69c-.54.19-1.07.4-1.61.61s-1,.39-1.5.62l-.31.13L65.5,82a12.84,12.84,0,0,0-1.66-1.47l-.39-.27a12.15,12.15,0,0,0-1.75-1l-.25-.13a12.9,12.9,0,0,0-2.1-.69l-.5-.1a12.73,12.73,0,0,0-2.3-.24A12.33,12.33,0,0,0,44.22,90.38h0a11.79,11.79,0,0,0,.27,2.37c0,.22.1.43.15.65a13.06,13.06,0,0,0,.59,1.73c.08.18.14.36.23.54a11.7,11.7,0,0,0,1.12,1.9l-.2.31c-.31.42-.56.85-.84,1.27s-.65,1-.95,1.49-.52.92-.78,1.4l-.61,1.07c-.11-.1-.22-.2-.31-.3s-.31-.34-.44-.51c-.31-.36-.6-.74-.88-1.12Zm9.87-8.46-.29.26c-.06-.16-.12-.33-.17-.5s-.07-.24-.1-.37a6,6,0,0,1-.14-1.2,6.17,6.17,0,0,1,6.16-6.16,5.78,5.78,0,0,1,1.65.24c.17,0,.3.14.48.2a6.64,6.64,0,0,1,1,.46l0,0c-.11.07-.21.16-.31.23a45.81,45.81,0,0,0-8.34,6.81ZM44.4,120.87h0a39.62,39.62,0,0,1,2.76-11.6h0A40,40,0,0,1,66,88.66a40.56,40.56,0,0,1,18.26-4.44h37V102.7H108.91A12.23,12.23,0,0,0,98.3,121.18H44.37Zm65-49H112a9.25,9.25,0,0,1,8.72,6.16h-2.55A9.25,9.25,0,0,1,109.43,71.9ZM95.68,46.36a3.07,3.07,0,0,0,.9-2.18V38a3.09,3.09,0,0,1,6.17,0V41.1a3.07,3.07,0,0,0,3.08,3.08h3.08a3.08,3.08,0,0,1,0,6.16h-6.16a3.11,3.11,0,0,0-2.18.9L92.77,59a6.53,6.53,0,0,0-.45-.82,7.43,7.43,0,0,0-.4-.73,9.32,9.32,0,0,0-1.06-1.29l-.06-.07A9.17,9.17,0,0,0,89.44,55c-.09-.06-.19-.1-.28-.15a8.71,8.71,0,0,0-1.27-.7ZM56.54,59.58H84.26a3.08,3.08,0,0,1,3.09,3.08h0v15.4H84.26c-1.23,0-2.46.07-3.73.18l-1.08.11c-.44.05-.88.08-1.32.14-.11-.2-.25-.37-.36-.57-.25-.42-.52-.82-.79-1.23-.38-.56-.76-1.11-1.18-1.63s-.62-.76-1-1.11c-.44-.5-.9-1-1.37-1.42s-.72-.66-1.09-1-1-.81-1.55-1.19-.78-.56-1.2-.82-1.14-.67-1.73-1c-.42-.21-.83-.44-1.27-.64-.61-.28-1.28-.51-1.93-.74-.43-.15-.84-.31-1.28-.45-.73-.21-1.49-.36-2.25-.5-.38-.08-.74-.18-1.12-.24a24.59,24.59,0,0,0-28,27.25c0,.31.11.62.16.92.1.62.2,1.25.34,1.85.09.36.2.72.31,1.08.16.54.31,1.09.51,1.62.14.37.29.73.44,1.09.21.51.43,1,.68,1.5s.36.7.56,1,.54,1,.84,1.4.44.66.67,1,.67.88,1,1.31.48.6.74.88.82.85,1.24,1.24c.26.25.51.51.78.74.08.07.15.15.24.22-.25.73-.49,1.46-.7,2.19h0a22.7,22.7,0,0,0-2.16-2.44c-.23-.23-.49-.42-.73-.64a22.21,22.21,0,0,0-1.76-1.45c-.33-.24-.69-.45-1-.67-.57-.36-1.15-.72-1.76-1-.4-.2-.8-.37-1.21-.55-.61-.27-1.23-.51-1.85-.72-.22-.07-.43-.19-.66-.25a30.31,30.31,0,0,1-3-13.19A30.84,30.84,0,0,1,56.54,59.58Zm-40,49.28h6.16a15,15,0,0,1,3.28.36h0a15.39,15.39,0,0,1,11.75,11.72,2,2,0,0,1,.05.24H16.5Zm147.85,40a3.08,3.08,0,0,1-3.08,3.08H25.74a3.08,3.08,0,0,1-3.08-3.08v-3.08H164.35Zm0-9.24H22.66A15.43,15.43,0,0,1,7.57,127.34H179.44a15.43,15.43,0,0,1-15.09,12.32Z"/><path id="Trazado_22" data-name="Trazado 22" class="cls-2" d="M149,115a9.24,9.24,0,1,0-9.24-9.24h0A9.24,9.24,0,0,0,149,115Zm0-12.32a3.08,3.08,0,1,1-3.08,3.08A3.08,3.08,0,0,1,149,102.7Z"/><path id="Trazado_23" data-name="Trazado 23" class="cls-2" d="M109.81,101.8l4.35-4.36-4-4,4-4-4.35-4.36-6.16,6.16a3.07,3.07,0,0,0,0,4.36Z"/><path id="Trazado_24" data-name="Trazado 24" class="cls-2" d="M91.33,104.88l4.35-4.36-4-4,4-4L91.33,88.2l-6.16,6.16a3.07,3.07,0,0,0,0,4.36Z"/><path id="Trazado_25" data-name="Trazado 25" class="cls-2" d="M72.85,104.88l4.35-4.36-4-4,4-4L72.85,88.2l-6.16,6.16a3.07,3.07,0,0,0,0,4.36Z"/><path id="Trazado_26" data-name="Trazado 26" class="cls-2" d="M75.93,114.12l6.16,6.16,4.35-4.36-4-4,4-4-4.35-4.36-6.16,6.16c-1.41.95-2,2.49-1.1,3.9A.91.91,0,0,0,75.93,114.12Z"/><path id="Trazado_27" data-name="Trazado 27" class="cls-2" d="M64.88,112.84l-4-4,4-4-4.35-4.36-6.16,6.16a3.07,3.07,0,0,0,0,4.36l6.16,6.16Z"/></g></g></svg>