<svg id="layer1" xmlns="http://www.w3.org/2000/svg" width="233.615" height="43.662" viewBox="0 0 233.615 43.662">
  <g id="g17552" transform="translate(0 0)">
    <path id="path5626" d="M1630.883,4202.172v-3.326a7.962,7.962,0,0,0-.926-4.149,4.82,4.82,0,0,0-3.876-2.335,4.362,4.362,0,0,0-3.508,2.624,12.151,12.151,0,0,0-1.066,5.424c0,3.359.759,8.394,4.487,8.54a4.929,4.929,0,0,0,3.82-2.5,7.519,7.519,0,0,0,1.068-4.272m2.443,9.04h-1.536a.672.672,0,0,1-.659-.6v-2.546a5.792,5.792,0,0,1-5.553,3.555c-2.658,0-4.365-1.312-5.677-3.53a14.658,14.658,0,0,1-1.707-7.315c0-5.216,2.1-10.965,7.622-10.965a5.688,5.688,0,0,1,5.066,2.859v-9.038a.664.664,0,0,1,.655-.6h1.784a.667.667,0,0,1,.659.6v26.983a.665.665,0,0,1-.655.6" transform="translate(-1445.994 -4182.967)" fill="#ababab"/>
    <path id="path5630" d="M1661.084,4213.576c-5.4,0-7.815-5.476-7.815-10.95,0-5.762,2.843-10.75,8.279-10.75h.289c5.292,0,7.922,5.314,7.922,10.789,0,5.8-2.913,10.912-8.385,10.912h-.291Zm.4-2.658a4.55,4.55,0,0,0,4.007-2.982,12.783,12.783,0,0,0,.888-5.31,11.816,11.816,0,0,0-1.137-5.682,4.114,4.114,0,0,0-7.705.492,13.447,13.447,0,0,0-.888,5.19,13.833,13.833,0,0,0,1.029,5.681,4.5,4.5,0,0,0,3.806,2.612" transform="translate(-1453.755 -4184.923)" fill="#ababab"/>
    <path id="path5634" d="M1688.8,4197.149a.7.7,0,0,0,.764.433l1.64-.4a.649.649,0,0,0,.5-.739c-1.07-3.419-3.863-4.674-7.124-4.662-3.606.015-6.908,1.8-6.908,6.106,0,3.687,2.517,5.164,5.284,5.778l2.943.614c1.56.326,3.509.944,3.509,3.156,0,2.587-2.308,3.4-4.2,3.44-2-.046-4.529-1-5.162-3.372a.651.651,0,0,0-.755-.442l-1.714.387a.652.652,0,0,0-.5.73c.957,3.756,4.363,5.333,7.916,5.362,3.748.03,7.644-1.721,7.644-6.434a5.857,5.857,0,0,0-2.164-4.713,8.9,8.9,0,0,0-3.757-1.436l-2.625-.534c-1.6-.287-3.226-.777-3.226-3.032,0-2.223,2.062-2.988,3.674-3.032a4.488,4.488,0,0,1,4.259,2.782" transform="translate(-1459.02 -4184.903)" fill="#ababab"/>
    <path id="path5638" d="M1644.019,4184.754a1.917,1.917,0,1,1,1.914,1.8,1.862,1.862,0,0,1-1.914-1.8m2.821,26.314h-1.808a.668.668,0,0,1-.659-.6l.007-19.631a.668.668,0,0,1,.657-.6h1.8a.667.667,0,0,1,.659.6v19.633a.663.663,0,0,1-.655.6" transform="translate(-1451.709 -4182.948)" fill="#ababab"/>
    <path id="path5642" d="M1609.775,4213.264h-1.538a.668.668,0,0,1-.657-.6v-2.906c-1.075,2.265-2.808,3.915-5.479,3.915a5.434,5.434,0,0,1-4.781-2.345c-1.214-1.729-1.427-4.118-1.427-6.258v-12.122a.669.669,0,0,1,.659-.6h1.788a.667.667,0,0,1,.659.6v12.122a9.238,9.238,0,0,0,.607,3.827,3.337,3.337,0,0,0,2.78,1.975,4.852,4.852,0,0,0,3.552-2.137,8.651,8.651,0,0,0,1.39-5.272v-10.534a.668.668,0,0,1,.657-.586h1.784a.68.68,0,0,1,.663.6l0,19.713a.673.673,0,0,1-.663.6" transform="translate(-1441.059 -4185.026)" fill="#ababab"/>
    <path id="path5646" d="M1570.709,4197.149a.7.7,0,0,0,.766.433l1.638-.4a.648.648,0,0,0,.5-.737c-1.072-3.418-3.865-4.676-7.124-4.664-3.606.015-6.908,1.8-6.908,6.106,0,3.685,2.519,5.164,5.284,5.776l2.941.616c1.562.326,3.511.944,3.511,3.156,0,2.589-2.31,3.4-4.2,3.44-2-.046-4.531-.994-5.164-3.372a.649.649,0,0,0-.755-.442l-1.712.387a.655.655,0,0,0-.5.731c.957,3.756,4.363,5.334,7.918,5.363,3.75.029,7.642-1.72,7.642-6.435a5.856,5.856,0,0,0-2.164-4.714,8.917,8.917,0,0,0-3.757-1.435l-2.623-.533c-1.6-.287-3.228-.777-3.228-3.032,0-2.223,2.064-2.985,3.676-3.032a4.49,4.49,0,0,1,4.259,2.782" transform="translate(-1432.889 -4184.903)" fill="#ababab"/>
    <path id="path5650" d="M1579.958,4193.241h2.554v12.05c0,4.141,1.172,6.8,5.153,6.8h.276l2.049-.185a.685.685,0,0,0,.605-.637l.006-1.284c0-.328-.278-.682-.6-.652l-1.792.173c-2.056-.1-2.61-1.363-2.61-3.684v-12.583h3.4a.651.651,0,0,0,.6-.637v-1.273a.652.652,0,0,0-.605-.637h-3.4v-4.855a.627.627,0,0,0-.642-.6l-1.784.213a.69.69,0,0,0-.663.6v4.64h-2.588a.643.643,0,0,0-.589.643l-.015,1.253a.7.7,0,0,0,.637.651" transform="translate(-1437.392 -4183.454)" fill="#ababab"/>
    <path id="path5654" d="M1478.09,4227.169c-7.126,5.253-17.465,8.05-26.363,8.05a47.7,47.7,0,0,1-32.2-12.274c-.67-.6-.074-1.423.729-.953a64.909,64.909,0,0,0,32.219,8.537,64.21,64.21,0,0,0,24.584-5.023c1.209-.509,2.219.8,1.035,1.664" transform="translate(-1401.966 -4191.557)" fill="#ababab"/>
    <path id="path5658" d="M1496.1,4223.432c-.92-1.163-6.032-.552-8.327-.272-.7.083-.812-.526-.181-.965,4.085-2.863,10.771-2.042,11.55-1.077s-.207,7.655-4.035,10.857c-.589.487-1.144.222-.887-.418.863-2.149,2.791-6.958,1.881-8.125" transform="translate(-1417.001 -4191.195)" fill="#ababab"/>
    <path id="path5662" d="M1487.944,4195.78V4193a.693.693,0,0,1,.7-.709h12.486a.7.7,0,0,1,.72.709v2.376c0,.405-.341.926-.946,1.757l-6.462,9.219a13.811,13.811,0,0,1,7.119,1.531,1.241,1.241,0,0,1,.661,1.087v2.963c0,.411-.446.883-.918.633a14.393,14.393,0,0,0-13.19.028c-.431.229-.887-.231-.887-.643v-2.826a3.348,3.348,0,0,1,.463-1.909l7.491-10.735h-6.521a.689.689,0,0,1-.72-.7" transform="translate(-1417.014 -4185.015)" fill="#ababab"/>
    <path id="path5666" d="M1428.4,4213.048h-3.8a.712.712,0,0,1-.681-.632l.009-19.469a.71.71,0,0,1,.727-.7h3.537a.705.705,0,0,1,.69.651v2.543h.074a5,5,0,0,1,5-3.605c2.376,0,3.868,1.144,4.929,3.605a5.613,5.613,0,0,1,9.645-1.473c1.2,1.638.959,4.009.959,6.1l-.007,12.282a.706.706,0,0,1-.729.7h-3.794a.706.706,0,0,1-.679-.7v-10.315a25.107,25.107,0,0,0-.109-3.646,1.984,1.984,0,0,0-2.236-1.679,2.522,2.522,0,0,0-2.269,1.6,11.728,11.728,0,0,0-.348,3.729v10.315a.714.714,0,0,1-.739.7h-3.794a.705.705,0,0,1-.679-.7l-.007-10.315c0-2.174.355-5.368-2.336-5.368-2.727,0-2.626,3.113-2.626,5.368v10.315a.707.707,0,0,1-.729.7" transform="translate(-1403.002 -4184.915)" fill="#ababab"/>
    <path id="path5670" d="M1517.416,4195.815c-2.8,0-2.974,3.812-2.974,6.189s-.033,7.459,2.939,7.459c2.941,0,3.082-4.1,3.082-6.6a18.006,18.006,0,0,0-.563-5.163,2.384,2.384,0,0,0-2.484-1.884m-.035-3.966c5.634,0,8.683,4.831,8.683,10.972,0,5.943-3.363,10.652-8.683,10.652-5.525,0-8.542-4.831-8.542-10.85,0-6.067,3.049-10.774,8.542-10.774" transform="translate(-1421.795 -4184.917)" fill="#ababab"/>
    <path id="path5674" d="M1539.082,4213.048h-3.787a.707.707,0,0,1-.681-.7l-.006-19.468a.718.718,0,0,1,.729-.635h3.521a.725.725,0,0,1,.679.544v2.98h.065c1.07-2.667,2.552-3.936,5.179-3.936a4.979,4.979,0,0,1,4.433,2.288c.994,1.563.994,4.183.994,6.067v12.249a.717.717,0,0,1-.729.608h-3.811a.708.708,0,0,1-.672-.608v-10.571c0-2.13.25-5.241-2.377-5.241a2.484,2.484,0,0,0-2.2,1.555,8.65,8.65,0,0,0-.605,3.687v10.48a.718.718,0,0,1-.737.7" transform="translate(-1427.497 -4184.915)" fill="#ababab"/>
    <path id="path5678" d="M1415.014,4209.443a5.164,5.164,0,0,1-1.434-3.515v-5.912c0-2.5.174-4.8-1.673-6.526a8.607,8.607,0,0,0-5.716-1.886c-3.613,0-7.648,1.349-8.494,5.8a.676.676,0,0,0,.565.8l3.687.4a.8.8,0,0,0,.655-.7,2.893,2.893,0,0,1,3.058-2.271,2.552,2.552,0,0,1,2.129.981,4.887,4.887,0,0,1,.465,2.749v.492c-2.2.246-5.079.415-7.143,1.317a6.452,6.452,0,0,0-4.052,6.2c0,3.944,2.486,5.912,5.684,5.912,2.7,0,4.176-.635,6.263-2.758a9.105,9.105,0,0,0,2.179,2.527.77.77,0,0,0,.9-.09h.007c.753-.665,2.136-1.868,2.915-2.518.307-.248.248-.659.009-1m-6.76-5.73a7.469,7.469,0,0,1-.713,4.027,3.079,3.079,0,0,1-2.628,1.719c-1.457,0-2.31-1.1-2.31-2.749,0-3.226,2.9-3.82,5.651-3.82v.822Z" transform="translate(-1397.06 -4184.863)" fill="#ababab"/>
    <path id="path5682" d="M1478.947,4209.443a5.164,5.164,0,0,1-1.433-3.515v-5.912c0-2.5.181-4.8-1.666-6.526a8.648,8.648,0,0,0-5.725-1.886c-3.613,0-7.646,1.349-8.492,5.8a.673.673,0,0,0,.572.8l3.68.4a.79.79,0,0,0,.653-.7,2.9,2.9,0,0,1,3.058-2.271,2.555,2.555,0,0,1,2.129.981,4.809,4.809,0,0,1,.463,2.749v.492c-2.2.246-5.079.415-7.141,1.317a6.452,6.452,0,0,0-4.052,6.2c0,3.944,2.486,5.912,5.684,5.912,2.7,0,4.178-.635,6.262-2.758a9.306,9.306,0,0,0,2.18,2.527.77.77,0,0,0,.9-.09h.007c.763-.665,2.138-1.868,2.917-2.518.305-.248.248-.659.007-1m-6.761-5.73a7.452,7.452,0,0,1-.713,4.027,3.065,3.065,0,0,1-2.625,1.719c-1.458,0-2.312-1.1-2.312-2.749,0-3.226,2.9-3.82,5.649-3.82v.822Z" transform="translate(-1411.207 -4184.863)" fill="#ababab"/>
  </g>
</svg>
