<svg xmlns="http://www.w3.org/2000/svg" width="194.878" height="64.849" viewBox="0 0 194.878 64.849">
  <g id="Asics_Logo" transform="translate(-5 -5.041)">
    <path id="Trazado_64" data-name="Trazado 64" d="M25.157,51.034c-3.7,0-5.479-2.845-4.55-6.135,1.918-6.82,14.239-16.927,22.636-16.927,6.123,0,5.657,5.479,2.067,10.152l-1.984,2.2C36.209,47.3,29.612,51.034,25.157,51.034M55.168,5.041c-10.716,0-22.517,6.56-29.928,12.769l.585.848c11.5-8.064,27.466-13.307,31.866-5.442,2.324,4.149-1.62,12.528-7.175,19.15,1.328-2.925.451-8.54-7.294-8.54C30.347,23.826,5,40.882,5,58.337,5,65.328,9.85,69.89,17.84,69.89c21.386,0,50.389-35.055,50.389-52.661,0-6.22-3.578-12.188-13.061-12.188" fill="#ababab"/>
    <path id="Trazado_65" data-name="Trazado 65" d="M95.705,54.058a3.665,3.665,0,0,1-2.93-1.228,3.6,3.6,0,0,1-.557-3.227A6.873,6.873,0,0,1,98.7,44.889h6.883l-2.459,9.168Zm19.781-27.485a10.09,10.09,0,0,0-7.435-3.5H95.544l-2.123,7.918h11.8l1.13.119a2.662,2.662,0,0,1,1.68.929,3.512,3.512,0,0,1,.206,2.981l-.558,2.084h-7.432c-6.4,0-15.314,4.589-17.3,12a10.064,10.064,0,0,0,1.8,9.251c1.906,2.335,5.5,3.625,9.389,3.625h15.627l4.1-15.323,3.02-11.263c1.186-4.428-.1-7.242-1.392-8.819" transform="translate(-13.004 -3.024)" fill="#ababab"/>
    <path id="Trazado_66" data-name="Trazado 66" d="M221.423,23.07a15.117,15.117,0,0,0-9.085,2.9,12.558,12.558,0,0,0-4.855,7.377c-1.842,6.867,3.555,10.181,7.891,12.531,3.11,1.685,5.8,3.138,5.217,5.29-.411,1.545-1.086,2.9-4.912,2.9H204l-2.119,7.917h12.928a14.779,14.779,0,0,0,9.243-2.7,14.379,14.379,0,0,0,4.939-8.129,8.922,8.922,0,0,0-1.786-8.573,23.255,23.255,0,0,0-6.388-4.439c-2.8-1.506-5.44-2.928-4.979-4.651a3.487,3.487,0,0,1,3.578-2.5h11.361L232.9,23.07Z" transform="translate(-33.024 -3.024)" fill="#ababab"/>
    <path id="Trazado_67" data-name="Trazado 67" d="M139.982,23.07a15.118,15.118,0,0,0-9.084,2.9,12.608,12.608,0,0,0-4.863,7.377c-1.838,6.867,3.563,10.181,7.9,12.531,3.112,1.685,5.8,3.138,5.218,5.29-.415,1.545-1.087,2.9-4.913,2.9H122.561l-2.123,7.917h12.927a14.781,14.781,0,0,0,9.246-2.7,14.358,14.358,0,0,0,4.94-8.129,8.95,8.95,0,0,0-1.782-8.573,23.233,23.233,0,0,0-6.4-4.439c-2.8-1.506-5.432-2.928-4.97-4.651a3.479,3.479,0,0,1,3.573-2.5h11.355l2.127-7.918Z" transform="translate(-19.363 -3.024)" fill="#ababab"/>
    <path id="Trazado_68" data-name="Trazado 68" d="M163.071,23.07,152.932,61.977H161.5L171.63,23.07Z" transform="translate(-24.814 -3.024)" fill="#ababab"/>
    <path id="Trazado_69" data-name="Trazado 69" d="M197.492,23.07c-15.081.054-22.974,10.1-25.479,19.454-2.968,11.094,2.938,19.454,13.738,19.454h7.237l2.119-7.917h-7.235c-4.042,0-9.6-3.181-7.361-11.537a16.049,16.049,0,0,1,15.359-11.535h4.6l2.123-7.918h-5.1Z" transform="translate(-27.886 -3.024)" fill="#ababab"/>
  </g>
</svg>
