<svg xmlns="http://www.w3.org/2000/svg" width="173.726" height="117.624" viewBox="0 0 173.726 117.624">
  <g id="Grupo_44" data-name="Grupo 44" transform="translate(-1002.504 -5699.882)">
    <path id="Trazado_56" data-name="Trazado 56" d="M71.248,153.7c0-.067-.133,0-.268.065l-.066.135-.4.2-.334.065-1-.065h-.4l-.936-.4-.4-.067-.334.067-.535.2-.133.267H66.3l-.4.6c-.066.067-.066.133.067.133l.268-.267.268-.135c.268-.065.334-.133.334-.2s0-.067.268,0h.268l.334.133h.334l.735.267h.268l.536.135.4-.067.267.067.268-.135.334-.4.133-.2.2-.135a.678.678,0,0,0,.065-.267Zm-31.563-6.353a.191.191,0,0,0,0,.336l.133.065.268-.065h.268c.134,0,.2.065.334.267.133-.133.268,0,.334.334v.936l.066.133-.066.871.066.334-.066.8v.737l.066.267.133.334c.067.067.067.135,0,.135l-.133.468-.066.468.066.268-.066.2v.4l-.2.267-.4.135-.6.065-.268-.065h-.2v.468c0-.067.067-.067.133-.067l.334.067.268-.067,1.739.135.469-.135.2.067.2.067.536-.135.8.067.535-.067.936.135.936-.135.268.135h.2v-.67l.268-.869v-.6l-.334-.065-.133.2-.067.468-.2.2v.2l-.4.2-.4.2h-.4l-.469.133-.268-.133-.735.133-.469-.067h-.4c-.133-.065-.334-.133-.4-.334l.133-.6-.133-.133V153.5l.066-.4-.066-.535.066-.468-.066-.268v-.268h.133l.133.067,1.2-.067.6.067h.268l.4.133.133.2.2.47.067.2h.334l.067-.2-.134-.47v-.4l.134-.468-.067-.6-.067-.468c-.066-.133-.2-.133-.334-.133v.468l-.133.4-.334.133-.668.067h-.4l-.334.065-.536-.133h-.668l.133-.535-.133-.4v-1.537l.133-.47.066-.065.2.065h1.94l.268-.065.268.065c.067,0,.067,0,.133.067.334.065.469.133.4.2l.067.2.133.267.067.334.133.334.334-.065.067-.133-.133-.47v-.468l-.133-.47.066-.334c0-.133-.066-.133-.268-.133l-.469.133-.4-.133-.869.133-.535-.133-.469.133H42.026l-.334-.133-1.4.133-.334-.133-.268.064Zm14.578-.133-.535.133h-.2l-.2-.065-.4-.067h-.8l-.334-.065h-.268l-.4.065-.4.2h-.334l-.334.268-.4.4-.2.47-.2.535.133.334v.4l.334.535.268.067.067.2.067.135,1.4.936.4.267.8.535.2.2.469.67.066.535.067.267-.133.2-.2.4-.4.2-.936.2h-.268l-.268-.067-.469-.065-.334-.2-.133-.135-.134-.133-.334-.267-.067-.2-.066-.336-.2-.468c0-.2-.133-.2-.2-.2l-.2.2.067.268-.067.535.2.468v1.07h.2l.2-.065.133-.067.2.067h.334l.4.065,1.07.067.2.065.469-.133h.4l.334-.2.469-.133.735-1,.268-.8-.067-.936-.668-.8-.134-.133-.2-.067-.4-.468-.4-.133-.334-.336-1.4-.934-.469-.535-.133-.537.066-.334a1.191,1.191,0,0,1,.334-.468l.4-.268h.2l.268.135h.8l.268.133.2.067.268.065.133.2.067.2.268.4.133.267.067.2c.2.2.268.2.4.133v-.668l-.133-.4-.067-.535.067-.334S54.33,147.213,54.263,147.213Zm4.146.067-.2.065-.2.067-.469-.133-.2.133h-.133c-.268,0-.469-.067-.536-.267l-.334.065-.067.133-.066,1.072-.067.4-.133.336.066.267.2.067.2-.135.067-.735.468-.468.133-.133.2-.067.469-.065.133.133.133-.067h.133l1.137-.065.067.133v.334l.066.4v1.4l-.066.468v.47l.066,1.27-.066.47.133.468-.133.468v.47l.066.334-.267.4-1,.133h-.334v.4l.134.067h.133l.134-.067.469.067.535-.067.4.067.268-.067.2-.067.468.135.4-.135h.535l.469.067.268.067h.2c.133-.067.066-.2-.066-.4l-.268-.133-.2.133-.536-.067-.334-.334-.066-.535V153.7l-.066-.133-.067-.2.067-.47v-.535l-.067-.4.067-.869-.067-.47.067-.133.066-.2v-1.4l-.133-.468.067-.268v-.2h.6l.6.067.469-.067h.669l.334.4v.2l.2.2c.067.065.067.2.067.6l.2.2.2-.133v-.133l-.066-.133.066-.268.067-.2-.268-.535.067-.735-.067-.267-.469-.067c0,.133-.133.334-.268.334l-.469-.2-.133.067-.133.133h-.6l-.334-.133-.469.133-.536-.133h-.469l-.4.133-.535-.067-.469.067-.4-.133Zm7.89-.067h-.267a.721.721,0,0,0-.4.067l-.067.2.2.2h.468a.3.3,0,0,1,.2.267v.067l.066.4v.934l-.066.2.066.336.067.2-.067.6v.334l.067.2v.067l-.133.2.066.2-.066.267c0,.067-.134.135-.4.135h-.268l-.133.267.133.2H66.3l.134-.067.668.067h2.007l.4-.133.2-.067h.268l.267-.2.134-.065.133-.067.268-.2.133-.067.268-.2.334-.535.2-.334.067-.334.067-.133.066-.47-.066-.267-.067-.067-.067-.535-.133-.268-.469-.668-.2-.267H70.78l-.268-.2v-.067l-.469-.133h-.2l-.066.065-.2-.133-.268-.065h-.468l-.067.065-.6-.065-.133.065H67.57l-.268-.065h-.2l-.334.065H66.3Zm1.4,1.137v-.668h1.07l.4.133h.133l.334.133.334.2.066.2.133.133.066.133.2.268v.067l.067.4.066.067v.668l-.066.535-.2.336v.065l-.268.4-.334.268-.066.065-.133.067v.067l-.334.065H68.5l-.468.135-.334-.135v-.6l-.066-.334v-1.673l.066-.334v-.267l-.066-.2Zm10.966.267.133-.2.535-.268.334-.267.936-.336.536.135.4-.067.936.268.334.133.469.267a2.848,2.848,0,0,1,.469.47l.268.4.2.535h.268v-2.207l-.334.065-.267.135-.134-.067-.2-.133h-.268l-.469-.067-.735-.2-1.07-.065h-.2l-.468.065h-.536l-.936.2-.668.535-.2.067-.2.133-.4.268-.4.468-.133.468-.2.336-.4.934-.133.47v.4l.067.267.066.336-.066.267.334,1.07.268.47.268.334.4.267.334.268.936.468,2.14.4.334-.065.6.065.469-.065h.535l.2-.067q0-.2.6-.2l.469.268a.214.214,0,0,0,.2-.2l.066-.535.2-.4.134-.6.2-.735c-.133-.067-.2-.067-.2,0l-.134.2-.133.2-.133.067-.268.468-.4.268-.334.267-.334.334-.469.135-1.071.133h-.537l-.469-.067-.468-.133-1.137-.8-.334-.4-.134-.468L78,152.836V152.3l-.134-.468L77.8,150.9l.066-.468.2-.871.2-.4.334-.336.068-.2Zm17.185-.935.536.133.267-.133c.067,0,.067-.135-.065-.268l-.133-.067-.335.067-1.07-.133-.469.133h-.6l-.268-.133h-.268c-.133.133-.133.2,0,.4h.4l.334.065.334.268.268.4v.935l-.067.135.067.334-.133.468.133.6-.067.468.067.537-.133.267.066,1-.268.468-.133.268-.735.668-.535.2h-.6l-.8.067h-.469l-.468-.135-.334-.2-.469-.2-.268-.2-.334-.535-.133-.2V152.9l-.133-.6-.067-.468.067-.4.133-.468-.066-.6.066-.468-.2-.67v-.6l.2-.468c0-.133.133-.2.334-.267l.4-.135h.334c.133-.065.133-.267.133-.334H89.3l-.6-.133-.535.133h-.6l-.8-.067-.268.067-.2.133.067.135h.668c.2,0,.268.133.4.267l.133.47.133.4-.066.2-.067.2.133,1.27-.133.535.133.47-.133.6v.133l-.066.133.2.47v.468l.133.535.334.4.066.267.2.268.469.268.936.267.535.268H90.9l.6.2.334-.133h.535l.936-.133.334-.334.535-.2.4-.4.469-.334v-.2l.2-.268.067-.267v-.268l.133-.2.133-.267-.2-.668v-.268l.067-.2.133-.133v-.47l-.2-.6.134-.6-.134-.6.2-1.07a1.484,1.484,0,0,1,.271-.47Zm2.14.066h.268l.735.067a.65.65,0,0,1,.334.4l.133,1.07v.869l-.067,1.137.067.6-.067.468.067,1.2-.067.668.067.334-.2.4-.535.067h-.468l-.47.133-.065.2.133.133.267-.067.535.067.936-.067.4.135.6-.067.468-.133.6.065.535.135.4-.067h.468l.4-.133,1.338-.47.6-.535.065-.267c.067-.135.067-.2.135-.2l.065-.135.067-.334.133-.468-.067-.133v-.4l-.334-.334-.2-.268-.133-.133-.065-.2-.268-.135-.2-.2-.535-.2-.334-.067v-.067l.4-.065.4-.2.135-.2.2-.133c.133,0,.267-.067.4-.334a3.953,3.953,0,0,0,.067-.735v-.4l-.267-.535-.47-.4-.4-.2-.668-.2-.869-.067-.6-.133h-.468l-.47.067-1-.067-.135.2-.535-.133-1.4.133C97.862,147.481,97.795,147.682,98,147.748Zm3.946,3.344.334.067h.4l.468.2c.268.067.4.2.4.268l.334.47.2.468.2.535-.067.2-.065.468-.2.4-.268.334-.2.067-.468.268-.2.133h-1.07l-.067-.133h-.2l-.468-.336-.067-1.2v-.334l-.065-.47.065-.869v-.535l.2.067h.535l.267-.065Zm-1-2.275v-.267l-.065-.668v-.2h.334l.869-.067.869.2.47.334.267.535.067.47v.4l-.133.4-.2.4-.268.133-.2.133-1.27.2-.065-.065-.135-.135-.267.135-.268.065v-.869l-.065-.6.063-.535Zm10.567-1.6-.268-.065-.468.065c-.067,0-.067.133,0,.268h-.135v.2l-.065.2-.2.468-.334.936v.334l-.2.2-.135.133-.133.535-.6,1.406-.2,1.07-.135.2-.133.267-.2.47-.067.4c-.133.267-.2.4-.334.4-.065,0-.065.067-.2.135a.721.721,0,0,1-.334.2h-.535c-.067,0-.133,0-.133.2-.067.067,0,.2.133.2h.268l.468.067.47-.067,2.139-.065v-.334h-.334l-.268-.067-.535-.067a.308.308,0,0,1-.2-.334l.133-.468v-.2l.135-.535.4-.535v-.268l.065-.268h.735l.268.067h.2l1.27-.133.535.133.065.2.4.869.47,1.137-.268.268-.4.133-.065.067-.2.065-.067-.065c-.067,0-.133-.067-.267-.067-.135.067-.2.067-.2.267a.212.212,0,0,0,.2.2l.4-.065,1.072.133.668-.067h.6l.468-.065.268.133h.334l.133-.2-.133-.267-.133.065v.067l-.336-.133c-.2-.067-.4-.135-.4-.2l-.47-.936-.2-.268V153.3l-.267-.4-.268-.8-.067-.47-.468-.869-.067-.47-.133-.2-.2-.267-.2-.47-.267-1.135-.334-.4v-.4l-.135-.267h-.133l-.2.065H111.5Zm-.47,1.137.2.2.2.8.067.135.2.133.067.535.334,1.137.2.2.133.2h-.4l-1.072-.067-.535.067-.4.065a.248.248,0,0,1-.2-.065v-.067l.065-.133.135-.268.065-.535.133-.133.067-.2.133-.468.6-1.539Zm10.9-1.2-.135.133-.4.4-.2.267-.4.2-.47.268-.133.133-.267.2c-.2.133-.336.2-.4.334-.135.133-.067.267.065.334l.268-.067.067-.2.535-.067.2-.2.6-.334.067.267-.067.135-.065.2.065.468.067.334-.067.535.067.4v1.471c0,.133,0,.2.067.2l-.135.4V154.5l-.133.537h-1.2c-.2.133-.2.2,0,.334l.267.133.4-.067h1l.468.135.535-.2.535.2.668-.135c.135-.133.135-.2,0-.267l-.733-.133h-.4c-.135-.067-.135-.2-.135-.537v-.065l-.065-.334.065-.336-.065-.468v-.535l.065-.4-.065-1.137.133-.4-.067-.6.067-.535-.133-.47.065-1.07v-.468l.067-.268-.067-.2-.6-.068Zm5.416.066h-.334c0,.067-.133.133-.2.2l-.133.133-.8.47-.133.4-.2.2-.067.2-.065.47v.2l.133.468.2.4.267.4,1,.668-.268.133-.8.537-.268.267-.267.47-.135.468.067.4v.468l.2.2c.133.133.2.2.067.2-.067.067,0,.268.4.47l.4.2.133.135.268.2h.535l.6.065h.4l.334-.065.535-.135.4-.2.133-.2.133-.2.135-.067.133-.133.267-.4.135-.535.133-.535-.067-.2-.133-.133-.067-.47-.334-.6-.869-.6-.535-.2.334-.2.535-.2.133-.2.135-.133.133-.067.2-.133.133-.47.133-.4-.065-.2-.133-.2-.067-.47-.2-.4-.936-.6-.535-.067h-1.141v0Zm2.074,5.885.067.535v.47l-.135.468-.334.334-.535.268-.535.133-.268-.067-.334-.065-.4-.268-.535-.869-.065-.6.065-.133.067-.468.2-.47.267-.4.334-.334.2.067,1.2.668.735.734Zm-2.943-4.213v-.2l.133-.535.4-.334.267-.2.67-.2.334.133.535.268.133.133.067.2.268.4.065.468-.133.4v.47l-.334.6-.47.268-.267-.2-.535-.2-.336-.133-.2-.2-.067-.2-.4-.4a.906.906,0,0,1-.132-.535Zm7.758-.2-.135.067-.4.4-.8,1.4-.2.869-.067,1,.067.133.067.535.133.47.065.468.268.334.2.47.468.334.47.334.6.133.6.067.336-.067.869-.334.735-.535.267-.468.2-.47.067-.535.065-.468-.065-.336-.067-.468-.267-.4-.6-.735-.8-.4h-.869l-.468.133-.4.336-.47.133.067-.268.4-.934v-.268l.065-.268.336-.4.6-.735.47-.268.535-.267.468-.268.2-.067-.2-.133h-.334l-.4.2-.4.067-.871.468-.334.268-.4.2-.064.263Zm1.4,2.34.268.067.735.735.2,1.07-.065.2.065.47-.2.6-.067.535-.535.47-.47.133h-.2l-.468-.133-.067-.133-.468-.537-.334-1.2v-.468l.065-.735v-.47l.268-.268.535-.267.535-.067h.2Zm5.016-2.34c.065-.133.065-.2.2-.2l.268-.133.2-.2.668-.067.4.067.4.133.468.47.268,1v.334l-.067.47-.2.468-.334.4-.267.535-.135.067-.133.067-.133.267-.6.735-.8.735-.2.067-.135.267-.065.2-.4.4-.47.268c-.065.267-.065.468.067.535h.133l.135-.067h.334l.468-.133h2.609l.535.2.535-.2.268.133h.267v-.269l.135-.535.065-.6v-.936l-.065-.067-.135.067-.065.267v.2l-.2.334c-.067.2-.268.268-.47.336l-.535.065-.2.133h-.535l-1-.2-.47.133-.535-.067.268-.2.267-.334.268-.4.4-.133.334-.334.267-.4.47-.334.133-.268.47-.4.6-.668.268-.468.065-.336.135-.334.065-.334-.065-.133-.067-.067-.067-.4-.468-.869-.4-.267-.4-.268-1-.2h-.334l-.47.2-.869.334-.6.8-.267.6-.067.468.133.133.268-.065v-.269l.267-.4.135-.336Z" transform="translate(993.645 5661.732)" fill="#ababab" fill-rule="evenodd"/>
    <path id="Sustracción_1" data-name="Sustracción 1" d="M31.9,63.794a31.131,31.131,0,0,1-12.371-2.541A29.707,29.707,0,0,1,9.362,54.431,30.854,30.854,0,0,1,2.474,44.268,32.265,32.265,0,0,1,0,31.9,32.868,32.868,0,0,1,2.474,19.458,31.889,31.889,0,0,1,31.9,0,32.872,32.872,0,0,1,44.335,2.474,32.911,32.911,0,0,1,61.321,19.458,32.855,32.855,0,0,1,63.727,31.9a32.222,32.222,0,0,1-2.407,12.371,32.043,32.043,0,0,1-6.889,10.163,30.88,30.88,0,0,1-10.1,6.822A31.714,31.714,0,0,1,31.9,63.794Zm0-59.38a26.461,26.461,0,0,0-10.7,2.14,25.767,25.767,0,0,0-8.76,5.884A27.775,27.775,0,0,0,6.555,21.2a27.042,27.042,0,0,0,0,21.4,27.753,27.753,0,0,0,5.885,8.759A26.825,26.825,0,0,0,21.2,57.24a26.479,26.479,0,0,0,10.614,2.207H31.9A26.5,26.5,0,0,0,42.6,57.24a28.361,28.361,0,0,0,8.759-5.885A27.4,27.4,0,0,0,59.381,31.9a27.4,27.4,0,0,0-8.024-19.458A27.156,27.156,0,0,0,42.6,6.554,26.486,26.486,0,0,0,31.9,4.414Z" transform="translate(1053.925 5699.882)" fill="#ababab"/>
    <path id="Trazado_59" data-name="Trazado 59" d="M110.232,52.269l-1.27-1.605c-.065-.268-.2-.469-.267-.735l-.135-.469c-.2-.334-.668-.4-1.336-.268-.871.268-2.006,1.337-3.211,3.21a34.852,34.852,0,0,1-4.881,5.818,5.479,5.479,0,0,1-3.143,1.471,1.785,1.785,0,0,1-.8-.2c-.334-.268-.535-.87-.535-1.939a6.585,6.585,0,0,0,2.006-2.274A3.491,3.491,0,0,0,97.19,53.4c-.065-.6-.935-.668-2.675-.133l-1.136.4-.4-.4-.8-.869c-.735-.535-1.2-.4-1.471.334a11.171,11.171,0,0,0-.2,1.471c-2.073,1-3.143,1.872-3.143,2.474a1.122,1.122,0,0,0,.669,1,11.632,11.632,0,0,0,2.206.735c.067.6,0,.936-.2,1.137l-.8.066a5.813,5.813,0,0,1-3.343-1.4,32.622,32.622,0,0,1-4.815-5.751,11.081,11.081,0,0,0-3.143-3.21l-.6-.2h-.666l-.334.469-.067.6c0,.2-.2.4-.334.669l-1.137,1.471-2.474,3.277c-.6,1.07-1.337,2.34-2.073,3.945a22.86,22.86,0,0,0-1.8,7.222,25.894,25.894,0,0,0,.468,7.623,25.118,25.118,0,0,0,4.881,10.03l1.137,1.27c.334.536.535.6.8.268.067-.134,0-.4-.334-.735l-.8-1a15.977,15.977,0,0,1-2.14-4.08c-1.4-3.544-1.605-5.483-.669-5.952.669-.268,1.471.334,2.474,1.939l.668,1.137c.268.6.469.869.735.8.268-.2.133-.536-.334-1.2a16,16,0,0,1-1.4-4.279c-.4-2.341-.2-3.812.6-4.346.87-.469,1.873,0,3.009,1.471a5.533,5.533,0,0,1,.936,1.471,8.391,8.391,0,0,1,.8,1.939c.133.535.2.735.469.668.334-.067.4-.334.133-.869l-.2-1.471c0-1.4.334-2.206,1.071-2.408.8-.268,1.538.067,2.274,1.137a7.611,7.611,0,0,1,1.07,4.346.928.928,0,0,1-.469.8c-1.07.4-1.538.936-1.538,1.538a2.594,2.594,0,0,0,.735,1.739c2.206-1.071,3.744-1.27,4.881-.535.869.535,1.806,2.14,2.675,4.881a39.838,39.838,0,0,1,1.672,8.492l.134,1.939c0,.4.066.535.334.535s.4-.133.334-.535l.133-1.939a41.207,41.207,0,0,1,1.672-8.359c.8-2.675,1.739-4.346,2.608-5.015,1.07-.735,2.609-.536,4.815.4a1.774,1.774,0,0,0,.936-1.6c0-.669-.47-1.2-1.539-1.538a.869.869,0,0,1-.535-.8A8,8,0,0,1,102,70.053c.735-1,1.471-1.337,2.275-1.137.8.268,1.137,1.07,1.07,2.474l-.133,1.471c-.268.535-.268.8.065.8.268.067.4-.133.47-.668a4.476,4.476,0,0,1,.8-1.939,11.035,11.035,0,0,1,.936-1.471q1.705-2.206,3.01-1.4c.869.535,1.07,2.006.6,4.279a27.071,27.071,0,0,1-.8,2.876l-.668,1.4c-.4.735-.47,1.071-.268,1.2.268.067.535-.133.735-.735l.735-1.137c1-1.672,1.74-2.274,2.473-1.939.936.4.737,2.408-.733,5.952a14.963,14.963,0,0,1-2.141,4.08l-.8,1c-.268.268-.4.535-.268.735.268.268.47.268.735-.268l1.137-1.27a24.676,24.676,0,0,0,4.881-10.03,26.039,26.039,0,0,0,.47-7.623,21.238,21.238,0,0,0-1.8-7.222c-.735-1.605-1.473-2.876-2.074-3.945l-2.472-3.275Z" transform="translate(993.312 5662.86)" fill="#ababab" fill-rule="evenodd"/>
    <path id="Trazado_60" data-name="Trazado 60" d="M111.669,56.295a17.361,17.361,0,0,0-2.074-3.277l-1.471-1.938-.2-.536-.067-.267h-.535a4.8,4.8,0,0,0-.936.869,14.986,14.986,0,0,0-2.943,5.483,15.27,15.27,0,0,1-1.871,4.48,2.222,2.222,0,0,1-1.27.735,3.679,3.679,0,0,1-2.141-.468,8.822,8.822,0,0,0-2.34-.8c-.8-.2-.936-.133-.668.067,2.072,1.2,2.607,3.677,1.605,7.355l-1.2,3.544-1.337,3.343a25.038,25.038,0,0,0-1.672,8.627,26.078,26.078,0,0,0-.6-5.215c-.536-2.408-1.2-3.945-1.939-4.48a2.21,2.21,0,0,0-2.274-.469,2.778,2.778,0,0,0-1.872,1.605c.2-1.806.535-2.876,1-3.277.6-.334,1.672,0,3.21.936a27.725,27.725,0,0,1-1.739-4.881,7.937,7.937,0,0,1,.133-4.881A3.4,3.4,0,0,1,90,61.177a4.681,4.681,0,0,1,1.137-.4c.268-.067.4-.133.334-.334l-.134-1.071c-.066-.2-.066-.334-.2-.334-.066.066-.133.334-.133,1.07,0,.134-.268.2-1,.268a7.607,7.607,0,0,0-3.009,1,2.883,2.883,0,0,1-2.14.468,1.687,1.687,0,0,1-1.27-.735,5,5,0,0,1-.735-1.337l-1-2.943A14.713,14.713,0,0,0,78.7,51.146l-.936-.869H77.23l-.066.267-.2.536-1.4,1.738a28.527,28.527,0,0,0-2.073,3.277,20.182,20.182,0,0,0-2.408,8.894c-.066,3.276.4,5.817,1.471,7.623l.067-.066a18.045,18.045,0,0,1-.735-7.423,24.345,24.345,0,0,1,1.471-6.085,19.2,19.2,0,0,1,2.206-4.548,22.618,22.618,0,0,0-.133,6.487,18,18,0,0,0,2.34,7.757h.067a29.053,29.053,0,0,1-1.471-8.091,27.91,27.91,0,0,1,.468-6.62c.334-1.605.8-2.341,1.2-2.341.2,0,.4.268.668.8a3.78,3.78,0,0,1,.8,1.4A19.065,19.065,0,0,1,80.841,58.9c.535,4.012,1.337,6.286,2.474,6.754a2.045,2.045,0,0,0,2.14-.4,4.342,4.342,0,0,0,1.538-1.939,6.7,6.7,0,0,0-.267,2.741,8.912,8.912,0,0,0,.8,2.876l1.27,2.408-1.2-.669-.735-.2c-.6,0-1,.334-1.27,1.2a10.708,10.708,0,0,0-.535,3.678.607.607,0,0,1-.4.6c-1.271.268-1.739.735-1.472,1.337a7.515,7.515,0,0,1,2.675-.6,3,3,0,0,1,.735-1.806,2.151,2.151,0,0,1,2.14-.535c1.07.469,1.872,1.872,2.54,4.279a33.637,33.637,0,0,1,1.137,6.888l.133,3.879c.067-.334.134-1.672.2-3.879a29.751,29.751,0,0,1,1.071-6.888c.668-2.407,1.538-3.811,2.608-4.279a1.938,1.938,0,0,1,2.072.6,1.9,1.9,0,0,1,.67,1.739,7.556,7.556,0,0,1,2.741.6c.334-.6-.133-1-1.4-1.337-.268-.067-.4-.268-.47-.6a14.53,14.53,0,0,0-.468-3.678c-.268-.869-.67-1.2-1.27-1.2l-.8.4-.936.4.868-1.8a9.052,9.052,0,0,0,1-4.213,8.241,8.241,0,0,0-.268-2.073,5.846,5.846,0,0,0,1.27,2.073,1.534,1.534,0,0,0,1.137.535,1.494,1.494,0,0,0,1.27-.334c1-.869,1.873-3.076,2.408-6.554a34.11,34.11,0,0,1,1.338-5.015l.735-1.4c.4-.535.6-.8.735-.8.4,0,.869.735,1.2,2.341a24.846,24.846,0,0,1,.47,6.62,26.9,26.9,0,0,1-1.471,8.091h.065a18.021,18.021,0,0,0,2.342-7.757,22.574,22.574,0,0,0-.135-6.487,22.013,22.013,0,0,1,2.275,4.548,21.494,21.494,0,0,1,1.4,6.085,20.545,20.545,0,0,1-.668,7.423l.067.066c1-1.806,1.471-4.346,1.471-7.623a21.118,21.118,0,0,0-2.407-8.693Z" transform="translate(993.28 5662.846)" fill="#fff" fill-rule="evenodd"/>
    <path id="Trazado_61" data-name="Trazado 61" d="M92.245,55.344c-.334.2-.535.4-.535.669,0,.2.066.268.334.334h.936c.268,0,.469-.067.469-.2a.674.674,0,0,0-.2-.6.907.907,0,0,0-1-.2Zm2.275-.2.2.735.469-.536c.133-.267.2-.468.133-.535l-.4.133-.4.2Z" transform="translate(993.043 5662.794)" fill="#fff" fill-rule="evenodd"/>
    <path id="Trazado_62" data-name="Trazado 62" d="M184.205,137.789a1.928,1.928,0,0,0-.6-1.406,1.968,1.968,0,0,0-1.471-.6,2.045,2.045,0,0,0-1.4.6,2.163,2.163,0,0,0-.535,1.406,1.914,1.914,0,0,0,.535,1.471,2.039,2.039,0,0,0,1.4.6,2.056,2.056,0,0,0,2.073-2.073Zm-.269,0a1.7,1.7,0,0,1-.535,1.27,1.5,1.5,0,0,1-1.27.535,1.451,1.451,0,0,1-1.2-.535,1.712,1.712,0,0,1-.535-1.27,1.675,1.675,0,0,1,.535-1.2,1.611,1.611,0,0,1,1.2-.468,1.714,1.714,0,0,1,1.8,1.673Z" transform="translate(992.025 5661.862)" fill="#ababab" fill-rule="evenodd"/>
    <path id="Trazado_63" data-name="Trazado 63" d="M181.161,137.03c0-.267-.133-.4-.4-.535l-.6-.065h-.735v2.206h.336v-.871h.334l.4.067c.133.067.2.268.2.535v.133l.067.135h.4l-.067-.135v-.334l-.133-.334c-.067-.133-.2-.133-.4-.2l.334-.133A.563.563,0,0,0,181.161,137.03Zm-.535-.267.065.4-.2.267-.336.067h-.4v-.8h.4ZM77.38,113.96a9.065,9.065,0,0,1,3.076,5.619h.4c-.067-4.147,0-6.889.133-8.159h-.2a1.331,1.331,0,0,1-1,.535l-1.605-.133a19.085,19.085,0,0,0-8.158-1.2,13.075,13.075,0,0,0-9.094,4.08,14.071,14.071,0,0,0-3.879,10.632c.067,4.28,1.472,7.624,4.146,9.964,2.541,2.273,5.751,3.276,9.763,3.143a12.883,12.883,0,0,0,7.155-2.141,10.477,10.477,0,0,0,3.343-3.543l.669-1.2-.4-.267a11.936,11.936,0,0,1-4.681,4.278,10.99,10.99,0,0,1-5.684,1.137,8.175,8.175,0,0,1-6.151-3.209,13.19,13.19,0,0,1-2.741-8.36,15.672,15.672,0,0,1,2.073-9.161,8.343,8.343,0,0,1,6.82-4.08,9.159,9.159,0,0,1,6.019,2.075Zm-50.22,7.758A5.509,5.509,0,0,0,28.5,116.97a6.6,6.6,0,0,0-2.741-4.347,10.539,10.539,0,0,0-6.553-1.537c-4.748.133-8.225.133-10.7.065v.4l1.672.47a5.624,5.624,0,0,1,1.137.8,1.4,1.4,0,0,1,.469,1.2v20.73c.066.735-.536,1.471-1.605,2.006A9.63,9.63,0,0,1,8.5,137.3v.4h6.62l6.887.065a12.268,12.268,0,0,0,6.554-1.805,6.183,6.183,0,0,0,2.741-4.948A6.472,6.472,0,0,0,28.9,125.6a7.465,7.465,0,0,0-5.35-2.074,6.429,6.429,0,0,0,3.612-1.8Zm-1.2,8.759a7.069,7.069,0,0,1-.468,2.809c-.869,2.072-2.742,3.143-5.617,3.143-2.073,0-3.21-.8-3.143-2.475v-9.563l2.274-.2a7.362,7.362,0,0,1,6.018,3.211,6.65,6.65,0,0,1,.936,3.075Zm-7.691-18.054a5.6,5.6,0,0,1,3.544,1.27,5.012,5.012,0,0,1,1.672,3.944c0,1.94-.4,3.276-1.271,4.08-1.137.936-2.876,1.27-5.549,1v-9.962l1.605-.334Zm156.809-.936v-.336H163.841v.336a11.1,11.1,0,0,1,1.606.535,2.863,2.863,0,0,1,1.6,2.206v20.529a2.783,2.783,0,0,1-1.6,2.072,11.1,11.1,0,0,1-1.606.535v.336h11.234v-.336a5.99,5.99,0,0,1-1.539-.535c-1.135-.6-1.67-1.27-1.67-2.072V114.228a2.556,2.556,0,0,1,1.67-2.206A5.991,5.991,0,0,1,175.076,111.487Zm-48.883,1.537a9.185,9.185,0,0,0-4.813-1.8q-1.905-.1-7.022,0l-5.416-.067v.4a5.837,5.837,0,0,1,1.537.47c1.07.6,1.6,1.27,1.672,2.006v20.73a2.559,2.559,0,0,1-1.672,2.006l-1.537.535v.4h10.831v-.336a9.356,9.356,0,0,1-1.469-.468c-.936-.668-1.406-1.27-1.406-2.006V124.66c0-.2.133-.334.4-.334.668,0,1.539.6,2.674,1.938a16.128,16.128,0,0,1,2.206,3.209l2.074,3.745c1.74,2.875,3.344,4.481,4.882,4.481a35.028,35.028,0,0,0,5.951.065V137.3a4.353,4.353,0,0,1-2.54-1,6.212,6.212,0,0,1-1.471-1.805l-4.28-6.686c-1.4-2.275-3.008-3.612-4.68-4.014a8.1,8.1,0,0,0,4.948-1.8,4.743,4.743,0,0,0,1.805-4.414,6.627,6.627,0,0,0-2.676-4.544Zm-7.621-.6a4.883,4.883,0,0,1,3.61,1.4,5.563,5.563,0,0,1,1.606,3.811,6.27,6.27,0,0,1-.6,3.409,4.278,4.278,0,0,1-2.408,1.672,12.827,12.827,0,0,1-3.745.067v-10.1C117.3,112.423,117.835,112.423,118.571,112.423Zm29.69-1.272H135.422v.336a8.382,8.382,0,0,1,1.539.535q1.6.9,1.6,2.006v20.8c0,.8-.535,1.406-1.6,2.074l-1.539.4v.4H140.7q1.507,0,7.424.2c4.815.065,8.493-1.272,11.167-4.147a12.458,12.458,0,0,0,3.61-9.028,12.59,12.59,0,0,0-4.078-9.628c-2.609-2.475-6.153-3.745-10.567-3.946Zm.334,1.539a9.945,9.945,0,0,1,6.153,3.879,12.506,12.506,0,0,1,2.408,7.622,16.236,16.236,0,0,1-1.539,7.69,8.053,8.053,0,0,1-5.684,4.347l-1.938.2-2.074-.067a3.317,3.317,0,0,1-1.6-.668,2.773,2.773,0,0,1-.869-2.275c-.067-1.938-.067-8.827-.067-20.6a11.154,11.154,0,0,1,5.214-.132ZM57.118,136.763a3.689,3.689,0,0,1-1.872-2.006l-8.693-23.94H42.541c-5.082,14.578-7.824,22.469-8.225,23.471a3.96,3.96,0,0,1-1.939,2.408,5.021,5.021,0,0,1-2.006.6v.4H39.2v-.4a5.268,5.268,0,0,1-1.739-.6,1.587,1.587,0,0,1-.8-1.537,7.722,7.722,0,0,1,.468-2.141l2.341-6.753h7.423l2.341,6.419c.334,1.137.536,1.873.6,2.275a1.67,1.67,0,0,1-.8,1.67,3.926,3.926,0,0,1-1.672.67v.4h11.5v-.4a12.924,12.924,0,0,1-1.74-.535ZM46.352,124.326H40.066l3.076-9.1Zm50.086,1.938c.735,2.206,1.471,4.345,2.273,6.419l.6,2.275a1.744,1.744,0,0,1-.735,1.67,3.487,3.487,0,0,1-1.672.67v.4H108.34l.067-.4a5.283,5.283,0,0,1-1.74-.535,3.477,3.477,0,0,1-1.873-2.006L96.1,110.817h-4.08C86.941,125.4,84.2,133.286,83.8,134.288a4.379,4.379,0,0,1-1.872,2.408,10.465,10.465,0,0,1-2.073.6v.4H88.68v-.4a4.762,4.762,0,0,1-1.739-.6,1.712,1.712,0,0,1-.8-1.537,11.5,11.5,0,0,1,.469-2.141l2.274-6.753h7.557Zm-6.888-1.938,3.21-9.1,3.143,9.1Z" transform="translate(994 5662.152)" fill="#ababab" fill-rule="evenodd"/>
  </g>
</svg>
