<svg id="Grupo_40" data-name="Grupo 40" xmlns="http://www.w3.org/2000/svg" width="161.442" height="84.875" viewBox="0 0 161.442 84.875">
  <path id="path2892" d="M607.462,1099.17H611.7v1.142H609.09v1.233h2.467v1.16H609.09v1.392H611.8v1.177h-4.34v-6.1Zm149.918,0h4.651v1.22H760.52v4.885h-1.628v-4.885H757.38Zm-13.821,0h2.032l1.769,3.661c.06.123.131.294.211.513s.169.488.267.805c-.053-.3-.09-.577-.115-.829s-.037-.482-.037-.692v-3.458h1.47v6.1h-2.024l-1.837-3.794a4.878,4.878,0,0,1-.238-.569c-.07-.2-.136-.428-.2-.669q.087.545.127,1c.027.3.041.575.041.807v3.222h-1.47v-6.1Zm-11.83,0h4.242v1.142h-2.614v1.233h2.467v1.16h-2.467v1.392h2.712v1.177h-4.34v-6.1Zm-14.732,0h2.365l1.062,3.669a3.685,3.685,0,0,1,.1.492c.027.182.045.378.058.586.02-.225.045-.434.074-.625a4.577,4.577,0,0,1,.1-.488l1.064-3.634h2.327v6.1h-1.456v-4.1c0-.195.006-.4.017-.606s.027-.432.048-.67c-.037.183-.078.359-.118.527s-.085.326-.132.475l-1.308,4.373h-1.39l-1.28-4.3c-.044-.148-.086-.313-.127-.5s-.08-.374-.115-.578c.02.289.035.55.047.78s.018.4.018.522v4.073H717v-6.1Zm-13.21,0h2.032l1.769,3.661c.06.123.131.294.211.513s.169.488.267.805c-.053-.3-.09-.577-.115-.829s-.037-.482-.037-.692v-3.458h1.47v6.1h-2.024l-1.837-3.794a5.118,5.118,0,0,1-.238-.569c-.071-.2-.136-.428-.2-.669.058.364.1.7.126,1s.042.576.042.807v3.222h-1.47v-6.1Zm-9.546,0h1.628v6.1h-1.628Zm-10.261,1.362-.79,2.29h1.554Zm-.95-1.362h1.964l2.311,6.1h-1.739l-.434-1.294H682.78l-.455,1.294h-1.612l2.315-6.1Zm-13.35,0h4.652v1.22h-1.512v4.885h-1.628v-4.885h-1.512Zm-10.285,1.073v1.564h.572a1.347,1.347,0,0,0,.792-.19.665.665,0,0,0,.264-.575.673.673,0,0,0-.295-.605,1.723,1.723,0,0,0-.93-.194h-.4Zm-1.594-1.073h2.427a3.267,3.267,0,0,1,1.8.393,1.341,1.341,0,0,1,.587,1.2,1.5,1.5,0,0,1-.309.975,1.534,1.534,0,0,1-.893.512,1.5,1.5,0,0,1,.773,1v0l.73,2.024h-1.7l-.537-1.672a1.055,1.055,0,0,0-.352-.559,1.242,1.242,0,0,0-.7-.154h-.236v2.385H657.8Zm-12.116,0h4.241v1.142h-2.613v1.233h2.467v1.16h-2.467v1.392h2.712v1.177h-4.339v-6.1Zm-12.253,0h4.652v1.22h-1.512v4.885h-1.628v-4.885h-1.512Zm-13.853,0h2.033l1.769,3.661c.06.123.131.294.211.513s.169.488.267.805c-.053-.3-.09-.577-.114-.829s-.037-.482-.037-.692v-3.458h1.469v6.1h-2.024l-1.838-3.794a4.942,4.942,0,0,1-.237-.569c-.07-.2-.136-.428-.2-.669q.086.545.126,1c.028.3.041.575.041.807v3.222h-1.469v-6.1Z" transform="translate(-607.255 -1020.4)" fill="#ababab"/>
  <path id="path2894" d="M648.1,992.947s.331,1.458,1.148.908,1.148-1.371,1.965-1.371,4.222-.64,5.039,0,.9.091,1.307.091a15.789,15.789,0,0,1,1.608.213c1.044-.109.832-1.769.077-2.255-1.09-.853-2.557-1.4-3.646-2.256q-.164-1.234-.327-2.469l.9-1.281v-4.115l-.49-1.1q-.082-1.555-.164-3.109l-.408-.549v-1.189c.272-.4.824-.792,1.1-1.189.082-.762-.284-1.3-.2-2.062-.191-.975-.214-2.175-.4-3.15V964.5c.79-.236.982-.586,1.038-.94a7.551,7.551,0,0,0-.385-2.078c-.109-5.7-.162-11.625-.271-17.325.435-.681.956-1.034.967-1.538.008-.393-.413-.721-.941-1.164v-1.189s.9-1.829,1.634-1.829a1.167,1.167,0,0,0,1.226-1.1.91.91,0,0,0-.735-1.463c-1.556-.032-3.319.047-4.837.015-1.339-.028-2.438-.169-3.741-.2l-1.716.091c-1.406.427-1.11,1.19-.572,1.617a3.952,3.952,0,0,0,1.961.9,1.864,1.864,0,0,1,1.961,1.234q.123,5.487.245,10.974c.027,2.7.11,5.4.137,8.093s0,5.4.026,8.093q.082,4.756.164,9.511a4.648,4.648,0,0,1-.409,1.463,10.307,10.307,0,0,0-.163,2.652c.9.788.712.678.082,1.738q-.082,3.521-.164,7.041l-.654,1.28s-2.352,1.378-2.352,2.567Zm-39.566,11.368c-1.212-.249-1.439-.835-1.008-1.181.258-.207.948-.2,1.259-.345a3.465,3.465,0,0,0,1.191-.832c.467-.579.184-1.918.741-3.009.536-4.6.7-10.7.161-12.753-.322-3.162.008-13.663.008-14.994a2.554,2.554,0,0,0,.492-1.812c0-.438.3-1.119-.018-1.661-.455-.52-.318-2.552-.353-3.7a6.67,6.67,0,0,1,.547-3.236,2.75,2.75,0,0,0,0-1.83c-.387-.9-.946.14-.908-1.669.091-4.389.255-8.805.139-13.193.025-.391.676-.462.8-.832a2.048,2.048,0,0,0,0-1.5c-.122-.253-.806.076-1.007-.116-1.226-1.171-2.766-1.907-3.477-3.47a2.2,2.2,0,0,1,.752-2.237c.967-.48,2.766.016,3.824-.166.569-.1.929-.437,1.505-.462,4.5-.2,9.122-.647,13.6-.2.717.071.953,1.336,1.607,1.65.9.43,2.206.338,2.893,1.073a5.975,5.975,0,0,1,2.03,3.779c.172,2,.516,4.271.5,5.809a7.833,7.833,0,0,1-.976,3.559,44.565,44.565,0,0,1-2.737,4.436c-.585.865-1.625,1.667-1.87,2.653-.253,1.019,2.38.271,2.919,1.163.518.858-.442,1.863-.152,2.83.258.862,1.751.946,1.929,1.83.457,2.281-.552,4.693-.161,6.987.125.735,1.29.761,1.4,1.5.137,1.592.088,3.277.1,4.968.013,1.8.083,3.608.06,5.32-.044.645-.889,1.022-.964,1.663-.2,1.708.386,3.636.009,5.31-.4,1.763-1.815,3.009-2.368,4.727-.479,1.488-.343,3.661-1.116,4.593a14.824,14.824,0,0,0-3.877,2.051c-1.472,1.095-2.413,2.35-2.865,2.39-.575.511-1.791.17-2.5.436-.657.244-.719.8-1.412.706-.547-.07-.377-.525-.8-.886a.793.793,0,0,0-.964,0c-1.443,1.161-.367.857-2,.706-1.664-.153-4.9.36-6.929-.055Zm9.322-6.678,1.125-2.163q-.161-3.576-.322-7.153l.964-1.332v-7.206c0-1.092-.152-2.184-.152-3.275-1.128-.933-.589-.92.321-2,0-1.053.254-1.9.254-2.957q-.161-1.331-.322-2.662l.482-1.331c0-1.334.152-2.414.152-3.749,0-1.253.036-1.673.265-1.594a12.76,12.76,0,0,1,1.422,1.4l1.758,1.69c1.082,1.04,2.136,1.135,1.7,2.839-.41,1.594.768,2.036.4,3.619a9.617,9.617,0,0,0-.566,2.7,2.66,2.66,0,0,0,.747,1.463c.451.518.6.486.331,1.123a8.18,8.18,0,0,0-.815,2.157c-.054.762.361,1.112.725,2.458a5.115,5.115,0,0,1-.006,2.935l-.98,3.929c-.037.991-.127,1.982-.2,2.974-.107,1.51-.308,1.549-1.358,2.629-.954.981-2.182,1.82-3.1,2.7-1.018.388-1.81.424-2.827.813Zm2.459-42.036a4.918,4.918,0,0,0,1.433,0c.253-.1.394-.394.763-1.109.476-.925,1.182-2.081,1.767-2.168a13.053,13.053,0,0,0,1.5-.293s.516-.1.339-1.369-.54-2.494-.22-2.836a1.6,1.6,0,0,0,.047-1.711c-.341-.391-.665-.782-.114-1.32s.93-1.438-.385-1.291-1.3-.423-1.451-.814-1.587-.3-2.337-.345c-.75.147-1.38.1-1.358.88s-.1,4.553-.093,4.944S620.318,955.6,620.318,955.6Zm41.613,34.323c-.059.332-.822.334-.763.668.082.465.112,1.191.581,1.252,1.359.176,3.222-.365,4.57-.116.532.1.561,1.006,1.049,1.24.4-.007,1.018.008,1.526,0,.391-.2.286-.922.668-1.144a2,2,0,0,1,1.621-.191c.275.1-.1.824.191.859,2.377-.09,4.5.17,6.75,0,.449-.074-.008-.717.359-.984.418-.3,1.456.226,1.526-.286.365-2.649-.205-5.607.044-8.268.08-.852.9-1.357,1.08-2.194.061-.279.395-.284.421-.558a9.386,9.386,0,0,0-.166-3.054,2.012,2.012,0,0,0-1.622-.3c-.362.267-.033,1.213-.276,1.591-.12.187-.548-.188-.668,0s.034.487.088.727c.032.143.029.264-.088.323-.626.313-1.547-.429-2.1,0s.067,1.236-.392,1.747c-.743.828-2.334,1.313-3.074,2.143-.88.987-.8,1.995-1.812,2.847-.791.667-2.136.737-3.1,1.126-1.112.452-1.642,1.284-2.8,1.609-.349.1-.774-.511-.668-.858.865-2.8,1.989-5.624,2.923-8.406.6-1.785.88-2.911,1.528-4.68a27.773,27.773,0,0,1,2.638-5.705c.215-.318.934-.11,1.049-.477.286-.91-.249-1.941,0-2.861a3.512,3.512,0,0,1,1.5-1.717c.4-.258,1.041.1,1.218-.341.413-1.034.027-2.128.287-3.21a9.875,9.875,0,0,1,1-1.855c.423-.9.392-1.684.858-2.563a17.064,17.064,0,0,0,1.409-2.494,11.361,11.361,0,0,0,.16-2.7c.028-.3.465-.464.477-.763.148-3.589.338-7.192.127-10.778-.017-.292-.674-.28-.668-.572.023-1.1.156-2.064.1-3.052-.012-.193.055-.351-.138-.359-2.987-.125-5.935-.057-8.924-.022-2.448.028-4.9-.168-7.345,0a1.332,1.332,0,0,0-.954.359,1.86,1.86,0,0,0-.349,1.167c.064,1.594-.032,3.33,0,5.246.006.355.706.143.826.477a7.156,7.156,0,0,1,.286,2.957c-.024.317-.41.744-.4,1.061.153,1.1.3,1.883.5,2.945.116.411.469.731.572,1.145.123.494-.328,1.493.181,1.526a3.111,3.111,0,0,0,1.059,0c.388-.141-.143-.852,0-1.24.1-.275.621-.283.668-.572.252-1.571-.186-3.411.063-4.982a1.825,1.825,0,0,1,.763-1.24c.351-.217.986.326,1.24,0,.352-.452.006-.974.223-1.5a5.53,5.53,0,0,1,1.431-2,3.663,3.663,0,0,1,1.875-1.178c1.675-.174,3.678-.018,5.946-.115.213-.009.27.317.286.53a9.408,9.408,0,0,1,0,3.148,12.231,12.231,0,0,1-2.183,3.116,21.628,21.628,0,0,0-1.717,2.025c-.571.843.282,1.992-.01,2.967a10.205,10.205,0,0,1-1.749,2.884c-.519.678-1.283,1.025-1.77,1.727a12.259,12.259,0,0,0-1.346,2.734,12.936,12.936,0,0,0-.668,2.575c-.113.691.218,1.472-.1,2.1-.229.459-.747.374-1.08.763a5.517,5.517,0,0,0-.954,1.908,9.5,9.5,0,0,1-.69,2.011c-.457.826-1.375,1.624-1.79,2.472a13.776,13.776,0,0,0-.732,3.052c-.219.971-.4,1.886-.6,2.862a16.454,16.454,0,0,0-.477,3.625c.008.371.4.626.572.954.146.277.48.562.382.858-.135.406-.893.435-.954.859a1.265,1.265,0,0,0,.37,1.145c.279.263.849.149,1.049.476a1.379,1.379,0,0,1,0,1.24c-.147.312-.664.236-.731.573-.274,1.372.062,2.35-.181,3.728Zm82.7,13.518c-.179-.568.268-.679.565-.975a3.072,3.072,0,0,0,1.028-1.711,13.023,13.023,0,0,0,.474-1.367,4.046,4.046,0,0,0-.266-2.037c-.271-.641-.715-.976-.554-1.587.057-.391.941-.439,1.638-.749a1.565,1.565,0,0,0,.8-.778c.153-.393-.355-.326-.614-.825-.276-.531-.316-1.327-.529-1.723a6.566,6.566,0,0,1-1.072-2.4c-.066-2.089.539-4.2.617-6.208.065-1.686.464-2.087.335-3.815a5.932,5.932,0,0,0-1-2.364,12.484,12.484,0,0,1-1.113-2.134c-.353-1.221,0-2.669-.212-3.923-.042-.246-.657-.546-.68-.795-.159-1.721.035-3.482-.076-5.185-.057-.32-.316-.381-.347-.7-.09-.954,0-1.883,0-2.708,0-.728-.1-1.35-.1-2.2,0-.315-.261-.531-.272-.846-.063-1.861.014-3.916-.01-5.779-.027-1.984-.148-3.778.01-5.754.027-.333.7-.325.688-.659-.062-1.514-.193-2.116-.158-3.639,0-.176.364-.584.378-.759a10.2,10.2,0,0,0-.061-3.619c-.233-.785-.822-1.03-1.5-1.536-.6-.448-1.262-1.175-1.815-1.583a6.515,6.515,0,0,1-1.712-1.724c-.322-.471.209-.512.8-.529a13.064,13.064,0,0,1,2.318.158c.245.038.706.461.939.551.559.217.924-.065,1.5.114a29.485,29.485,0,0,1,2.75,1.37c.67.386.887.947,1.587,1.276.126.059,2.288.678,2.539.741.585.146.949-.282,1.534-.136.68.17,1.889.512,2.653.741.43.129.7.637,1.142.724,2.136.426,1.754-.286,3.445,1.405.5.5,1.321.9,1.692,1.5a14.131,14.131,0,0,1,.913,2.8,13.445,13.445,0,0,1,.976,2.065c.37,2.048-.016,4.177.235,6.243.077.631.725,1.3.794,1.929a31.562,31.562,0,0,1,.008,7.225c-.1.814-.785,1.145-.907,1.956-.2,1.361.2,2.754.106,4.127a4.52,4.52,0,0,1-.756,1.9c-.252.409-.828.556-1.012,1-.486,1.161-.364,2.749-.589,4.007-.07,2.4-.021,4.264.082,6.664a27.645,27.645,0,0,1,.03,4.889c-.076.581-.563.9-.65,1.481-.241,1.6-.034,3.252-.189,4.867-.027.275-.434.593-.492.863a19.266,19.266,0,0,1-.854,5.29,6.534,6.534,0,0,1-2.442,2.835,9.826,9.826,0,0,1-3.09,1.029,9.61,9.61,0,0,0-2.116.422c-.383.2-.126.2-.475.452a.669.669,0,0,1-.741,0c-.269-.221-.186-.311-.5-.459a2.014,2.014,0,0,0-1.587,0c-.35.151-.222.424-.6.5a11.7,11.7,0,0,1-2.461.317c-.49-.012-.876.208-1.014-.234Zm7.1-54.336a3.042,3.042,0,0,1,2.217.394,3.906,3.906,0,0,1,1.781,1.819l.924.892a10.512,10.512,0,0,1,2.363,4.529c.084,1.742.458,4.793-.411,6.373a5.21,5.21,0,0,0-.679,2.067c-.206,1.873-.737,1.58-1.278,3a5.921,5.921,0,0,0-.128,1.776q-.071,4.891-.143,9.782a10.892,10.892,0,0,1-1.264,5,4.744,4.744,0,0,0-.754,2.556,6.161,6.161,0,0,1-.744,2.934q-.449,1.028-.9,2.059c-.355.813-.681,1.105-.917,1s-.382-.618-.378-1.408q.031-5.971.063-11.941.068-6.348.136-12.7a2.121,2.121,0,0,0-.616-1.784,10.009,10.009,0,0,0-.754-3.294,5.532,5.532,0,0,1-.5-2.954q-.051-4.412-.1-8.824c-.021-1.8.387-1.188,2.082-1.277Zm-69.361,50.6a13.452,13.452,0,0,1-.013-4.076c.041-.287.62-.019.777-.261a1.513,1.513,0,0,0,.292-1.263c-.093-.241-.258.092-.4-.127a1,1,0,0,1,.1-1.068c.323-.41.97-.3,1.191-.778.3-.646-.216-1.458,0-2.138.069-.216.627.221.68,0,.252-1.039-.061-2.149.1-3.206.041-.276.285-.4.317-.68a12.063,12.063,0,0,0,0-3.5c-.127-.713-.7-1.226-.8-1.943a31.12,31.12,0,0,1-.135-8.039,35.805,35.805,0,0,1,2.307-7.043c.474-1.184.706-.815,1.132-2.018a1.853,1.853,0,0,0,.1-1.166c-.153-.461-.7-.813-.621-1.293.094-.588.817-.573,1.009-1.136.262-.766-.265-1.664,0-2.429.312-.9,1.388-1.417,1.652-2.332.252-.873-.018-2.268.229-3.143a20.816,20.816,0,0,1,1.909-4.435,29.447,29.447,0,0,0,1.736-2.72,17.387,17.387,0,0,0,.5-3.012c-.607-.759-2,.3-2.915-.03-.464-.167-.462-.926-.921-1.106a3.849,3.849,0,0,0-2.623.435c-.939.7-.946,1.529-1.313,2.644-.549,1.665-.13,3.536-.815,5.149-.271.638-1.375.817-1.905,1.263-.281.236-.411.481-.777.481a.707.707,0,0,1-.777-.481,11.136,11.136,0,0,1,0-2.235c-.029-.586-.342-1.181-.194-1.749.077-.3.754-.181.777-.486.291-3.338-.109-6.655-.058-9.844.018-1.12.315-.954,1.418-.965,1.857-.019,4.8,0,6.935-.015,3.745-.019,7.5-.159,11.233-.056.556.04,1.279.247,1.318.8.079,1.124-.674,2.208-1.2,3.206-.276.528-.891.873-1.094,1.432-.345.948.029,2.071-.334,3.012-.223.577-1.354.684-1.571,1.263-.308.819.224,1.809-.1,2.623-.159.4-1.021.173-1.166.583-.489,1.386-.2,2.952-.583,4.372-.211.784-.8,1.333-.912,2.137-.292,2.183.189,4.413,0,6.607-.042.476-.545.8-.681,1.263-.32,1.077-.522,2.242-.891,3.3-.159.459-.75.7-.874,1.166-.182.689.275,1.48,0,2.137-.346.826-1.563,1.164-1.749,2.04-.525,2.473.306,5.08-.08,7.578-.173,1.118-1.158,2-1.36,3.109-.26,1.434.188,3.129-.169,4.541-.345,1.364-1.333,2.546-1.829,3.861-.116,1.291-1.663,2.476-.819,3.451a7.731,7.731,0,0,0,3.886-.2c.543-.246-.086-1.387.389-1.748,1.451-1.108,3.115-1.508,4.743-2.332a19.438,19.438,0,0,0,2.932-1.554c.421-.322.47-1.086.971-1.263.3-.107.365.626.68.68,1.085.185,2.027-.279,3.092,0,.426.112.413.685.524,1.111.1.382.272.793.06,1.123-.128.2-.591-.023-.681.2a2.434,2.434,0,0,0,0,1.457c.089.367.425.6.457.972a30.232,30.232,0,0,1,0,5.927c-.046.412-.28.844-.692.886-2.8-.129-5.393.077-8.2.085-.289-.026-.123-.537-.389-.651a5.447,5.447,0,0,0-2.8-.177c-.893.2-.968.94-1.867,1.119-1.619.324-3.491.007-5.124.254-.577.087-1.018.577-1.584.718-.785.2-2.024.405-2.429-.3ZM639.1,1004.27c-1.211.425-2.625,0-3.909.028-.4.008-1.04.319-1.42.207-.415-.121-1.069-.944-.81-1.291,1.013-1.352,3.011-1.52,3.937-2.932.544-.831.034-1.949.268-2.914.072-.3.591-.269.745-.532a.7.7,0,0,0,0-.744c-.369-.431-.6.473-.748-.817a17.031,17.031,0,0,1-.051-3.478c.067-.734.6-.579.7-.966.188-.721-.2-1.255-.009-1.975.087-.323.685-.241.851-.532a.975.975,0,0,0,0-.957c-.362-.544-1.348-.535-1.457-1.179a19.816,19.816,0,0,1-.073-3.632c.022-1.252-.064-2.507.041-3.783.019-.237.555-.227.638-.449a2.926,2.926,0,0,0,0-1.383c-.048-.367.065-1.117.037-1.486-.043-.567-.287-.777-.023-1.281.184-.351.782-.14.837-.532.291-2.072-.33-4.2-.106-6.277.038-.353.593-.3.686-.638a2.519,2.519,0,0,0-.048-1.7c-.115-.244-.659-.245-.68-.514-.239-3.04.177-5.915-.065-8.955-.023-.285-.722.115-.735-1.121-.014-1.3-.134-2.5-.116-3.454.013-.73,1.589-.75,1.573-1.48a17.914,17.914,0,0,0-.106-3.511c-.082-.367-.561-.306-.721-.647a1.164,1.164,0,0,1,.129-.967c.166-.393.615-.642.722-1.055a5.007,5.007,0,0,0,0-2.341c-.057-.249-.487-.492-.606-.718-.221-.418-.121-.787-.416-1.156-.2-.255-.806-.1-1.055-.31-.639-.545-1.007-1.152-1.543-1.649a6.635,6.635,0,0,1-1.57-1.505,1.373,1.373,0,0,1,.444-1.513,1.107,1.107,0,0,1,1.138,0c.28.149.274.743.588.786,1.371.191,2.732-.413,4.085-.115.589.13.621.874,1.17,1.124.368.167,1.03-.156,1.365.07a10.465,10.465,0,0,1,1.295,1.432c.5.507.926.732,1.181,1.45a7.741,7.741,0,0,1,.166,2.778c-.012.831.123,1.674.047,2.518-.026.284-.571.15-.648.425a1.936,1.936,0,0,0,.213,1.457c.182.316.677.155.8.5a4.82,4.82,0,0,1,.106,2.619c-.077.308-.67.109-.689.426a74.95,74.95,0,0,0,.106,12.023c.069.678,1.14.919,1.212,1.6a77.613,77.613,0,0,1-.12,11.385,4.219,4.219,0,0,1-.509,1.619,2.579,2.579,0,0,0-.084,1.4,15.51,15.51,0,0,0,.033,1.986c.056.372.813.726.786,1.1a15.963,15.963,0,0,0,.139,2.543c.03.491-.864.8-1.147,1.2a1.308,1.308,0,0,0-.162,1.161c.157.294.438.145.527.467a1.541,1.541,0,0,1-.093,1.254c-.148.266-.693.231-.745.531-.145.842.333,1.708.213,2.554-.036.253-.6.172-.638.425-.189,1.263.214,2.571,0,3.83-.081.475-.817.69-.851,1.171-.019.269.618.081.745.319.2.377-.3,1.157.106,1.277a8.721,8.721,0,0,0,4.418-.064c.777-.2,1.106-1.294,1.906-1.37.964-.091,1.675.546,2.628.716a9.016,9.016,0,0,0,3.863-.064c.727-.2,1.15-.968,1.9-1.067a71.989,71.989,0,0,1,9.5-.185c3.085-.017,7.032-.172,9.322.078,1.306.044-.11,4.664.361,7.1.1.531.556.829.829,1.32.435.784.6,1.183-.526,1.178-2.125-.01-4.275.153-6.581.056-.453-.019-.431-.892-.851-1.065-.46-.188-1.006.224-1.49.107-.724-.175-1.541-.87-2.281-.958-1.972-.237-3.959.258-5.926-.014-.446-.062-.508-.925-.958-.958-4.6-.336-9,.147-13.606-.1-.986-.054-1.076-.4-1.7-.58a5.74,5.74,0,0,0-3.3.033c-1.554.727-1.549,2.1-3.169,2.673Zm55.35-17.977c-.961-.028-1.025-1.571-.948-2.517.078-.968,1.342-.917,1.793-1.777.329-.626-.164-1.726.211-2.326.4-.646,1.5-.622,1.9-1.267.231-.369-.114-1.077-.1-1.512.026-1.03.257-1.789.209-2.818a11.059,11.059,0,0,1-.146-2.029c.139-.719.567-.544.779-1.245.264-.877-.175-1.874.105-2.746.112-.345,1.015-.172.951-.528-.079-.434-.869-.2-.948-.634a9.822,9.822,0,0,1,.1-4.166c.223-.809,1.14-1.428,1.373-2.234.243-.845-.272-1.8,0-2.64.184-.568,1.122-.688,1.267-1.267.341-1.366.037-3.042.392-4.4a4.589,4.589,0,0,1,1.017-1.974,1.971,1.971,0,0,0,.651-.889c.176-.581-.257-1.069-.157-1.668.088-.53.492-.87.749-1.341.325-.6.46-1.349.772-1.95a20.144,20.144,0,0,0,1.392-2.549c.243-.7-.279-1.834.032-2.5.441-.949,1.582-.925,2.016-1.877.351-.769-.263-1.774.106-2.535a1.645,1.645,0,0,1,1.488-.823,1.253,1.253,0,0,1,1.152.717c.3.83.029,1.826.371,2.64.6,1.432,1.639,2.275,2.216,3.716.3.751-.025,1.832.159,2.62.25,1.072.425,2.152.779,3.2.439,1.3,1.069,2.56,1.439,3.88.327,1.169.405,2.437.657,3.627a19.292,19.292,0,0,0,.821,2.5c.128.358.561.267.664.634.181.648-.363,1.352-.211,2.007.18.783,1.023,1.576,1.161,2.367a24.979,24.979,0,0,1,.022,3.812,30.116,30.116,0,0,0,.311,3.436c.1.7.485,1.7.5,2.213.065,1.9.15,3.772.171,5.675.032,2.781.032,5.754-.107,8.53-.016.324-.4.49-.516.794a20.818,20.818,0,0,0-1.068,2.985,9.582,9.582,0,0,1-.422,1.9c-.167.362-.91.658-1.036,1.036-.279.841.063,1.687,0,2.736a5.943,5.943,0,0,1-.8,2.263,16.5,16.5,0,0,0-.835,2.067c-.173.65.138,1.362-.052,2.007-.1.337-.561.5-.634.845-.183.861.158,1.8-.106,2.64-.149.475-.252.406-.706.611-.322.144-1.167.308-1.215-.043-.2-1.47.209-2.491-.024-3.958-.273-1.716-.991-2.76-1.423-4.444-.21-.817.166-2.295-.223-3.044-.7-1.35-2.937-1.9-2.839-3.411.094-1.467.971-2.422,1.864-3.615a14.9,14.9,0,0,0,1.387-3.083,6.349,6.349,0,0,0,.455-2.168,2.213,2.213,0,0,0-1.02-2.079,33.983,33.983,0,0,0-6.172-3.482c-.292-.142-.634.415-.634.739s.38.577.418.9c.111.947-.462,1.928-.052,2.788.433.908,2.14,1.172,1.888,2.146a1.557,1.557,0,0,1-.884,1.2,2.313,2.313,0,0,1-1.1.2c-1.176.054-2.386-.363-3.522-.122a14.72,14.72,0,0,0-3.479,1.4,5.247,5.247,0,0,1-2.362.849Zm10.4-14.765c-.01-.932-.033-1.849-.031-2.765,0-.809.022-1.618.085-2.437.042-.532.528-.938.591-1.467.105-.876-.433-1.927-.188-2.769.1-.342.965,0,1.161-.286.064-.094.2-.642.415-1.11.132-.281.405-.532.405-.64a19.6,19.6,0,0,1,.107-2.232c.068-.559.154-1.031.24-1.035s.17.46.466.846c.341.444.456.884.755,1.353a1.645,1.645,0,0,0,.656.716c.37.144.814-.059,1.182.09.276.111.343.544.591.716.168.117.552-.105.591.107.175.959.024,2.242.176,3.206.037.231.547.123.559.358q.116,2.516.111,5.038-.007,2.224-.12,4.447c-.021.422-1.137.452-1.448.215a4.682,4.682,0,0,0-1.772-1.181c-.329-.079-.313-.6-.624-.7a7.658,7.658,0,0,0-2.286-.288,14.958,14.958,0,0,1-1.621.107c-.086-.011,0-.191,0-.286Zm22.429-28.915c0,.965.105,2.011.108,3.022,0,1.3-.09,2.466-.085,3.777,0,1.4.109,2.938.109,4.3,0,1.11-.2,3.243-.116,4.165.11,1.185.175,1.391,1.8,1.391a4.669,4.669,0,0,0,2.63-1.617c.536-.556.456-1.517.661-1.932a6.741,6.741,0,0,0,.929-1.878c.138-.912-.2-1.665.413-2.248a14.017,14.017,0,0,0,.466-3.425c0-.821-.863-2.039-1.854-3.129-.678-.746-1.492-1.415-1.838-1.926a2.957,2.957,0,0,0-1.864-1.514C727.257,941.293,727.278,941.419,727.279,942.613Zm-7.26,51.395c-.257,1.013.524,1.427,1.447,2.024a34.4,34.4,0,0,1,2.992,2.2c1.7,1.392,2.855,3.933,3.961,6.435.569-.605.168-3.426.487-5.115.068-.362.458-.623.5-.99a17.855,17.855,0,0,0,0-3.96c-.062-.489-.534-.846-.66-1.32a2.575,2.575,0,0,1,0-1.155c.092-.46.453-.852.494-1.32a17.172,17.172,0,0,0,0-4.125c-.078-.513-.864-.8-.825-1.32.033-.428.958-.4.991-.825a18.657,18.657,0,0,0-.487-3.63c-.343-2.743-.543-5.5-.826-8.25a11.225,11.225,0,0,1-.33-2.97c.516-1.339.988-2.715,1.485-3.8.243-.318.563.3.809.619a9.33,9.33,0,0,1,2.1,3.581c.283,1.573-.569,2.965-.387,4.554.053.464.767.38.932.817a35.956,35.956,0,0,1,1.816,6.435,52.852,52.852,0,0,1,.66,7.591,10.47,10.47,0,0,1-.331,3.3c-.451,1.512-1.39,2.718-1.856,4.18-.488,1.529-.645,1.985.973,1.984a4.566,4.566,0,0,1,1.882.272c1.324.662,1.87,2.189,3.127,2.97.272.168.627.4,1,.612,1.782,1,1.979.309,2.35-1.252.49-2.064.614-3.925.931-5.96a28.129,28.129,0,0,0,.173-3.135c.064-1.488.176-2.968.1-4.456a3.17,3.17,0,0,0-.487-1.979c-.342-.395-1.35.009-1.485-.5-.185-.69.812-1.265.825-1.98a43.97,43.97,0,0,1-.555-5.557c-.037-2.242-.517-1.113-1.261-1.992a2.746,2.746,0,0,1-.659-1.691c-.207-2.025.086-4.266-.223-6.278a5.026,5.026,0,0,0-1.155-2.475c-.216-.249-.612.122-.76-.173-.247-.494.512-.833.223-1.3a10.416,10.416,0,0,0-3.151-2.64c-.32-.213-.884.272-1.155,0a1.293,1.293,0,0,1,0-1.386,5.715,5.715,0,0,0,3.811-2.244A14.028,14.028,0,0,0,740,952.913c.292-.838-.081-1.817.016-2.7.181-1.631,1.036-3.112.751-4.727a16.989,16.989,0,0,0-2.9-6.435,7.967,7.967,0,0,0-3.086-2.64c-1-.473-1.835-.077-2.9-.388-1.228-.359-2.212-1.046-3.465-1.3-.976-.2-2,.207-2.97-.017-.606-.14-.7-.821-1.32-.916-.424-.065-.858.549-1.286.586-2.96.251-5.389-.323-8.334.066-.44.058-.314.548.05.8.545.377,1.372.191,1.98.454a7.886,7.886,0,0,1,2.739,1.98,12.293,12.293,0,0,1,1.55,2.64c.25.458.969-.421,1.486-.495.652-.093,1.106-.111,1.518.4.37.462-.4,1.078-.832,1.476a18.215,18.215,0,0,1-2.266,1.767c-.534.366-1.48.695-1.877,1.41-.881,1.586.164,3.39.5,5.173.124.65.266,1.286.414,1.931.479,2.1.318,3.842.61,5.973.095.689.583,1.289.66,1.98.091.821-.057,1.427.066,2.244a10.346,10.346,0,0,0,.429,1.056,23.353,23.353,0,0,1,.825,4.967c.169,5.112-.135,10.121.123,15.23.024.465.722.649.817,1.105a4.6,4.6,0,0,1-.561,2.2c-.976,2.8-2.121,4.888-2.724,7.268Z" transform="translate(-607.025 -932.828)" fill="#ababab" fill-rule="evenodd"/>
  <path id="path2896" d="M938.629,934.979h-.147v.733h.2a.5.5,0,0,0,.331-.095.343.343,0,0,0,.113-.277.314.314,0,0,0-.12-.274.658.658,0,0,0-.382-.087Zm.148-.6a1.813,1.813,0,0,1,1.007.232.761.761,0,0,1,.348.676.83.83,0,0,1-.164.513.944.944,0,0,1-.46.319l.677,1.347h-1.061l-.547-1.184h-.095v1.184h-.972v-3.088Zm2.24,1.608a2.244,2.244,0,0,0-.171-.869,2.211,2.211,0,0,0-.489-.733,2.269,2.269,0,0,0-.739-.5,2.246,2.246,0,0,0-.87-.169,2.294,2.294,0,0,0-.874.165,2.117,2.117,0,0,0-.721.488,2.321,2.321,0,0,0-.5.748,2.231,2.231,0,0,0-.175.869,2.2,2.2,0,0,0,.172.864,2.336,2.336,0,0,0,1.232,1.235,2.247,2.247,0,0,0,1.733,0,2.333,2.333,0,0,0,.75-.5,2.128,2.128,0,0,0,.488-.72,2.266,2.266,0,0,0,.165-.871Zm-2.277-2.854a2.926,2.926,0,0,1,1.11.213,2.788,2.788,0,0,1,.928.62,2.828,2.828,0,0,1,.61.922,2.9,2.9,0,0,1,.214,1.1,2.853,2.853,0,0,1-.21,1.1,2.658,2.658,0,0,1-.614.9,3.072,3.072,0,0,1-.949.633,2.788,2.788,0,0,1-1.089.222,2.759,2.759,0,0,1-1.08-.217,2.888,2.888,0,0,1-.925-.63,2.831,2.831,0,0,1-.627-.923,2.782,2.782,0,0,1-.216-1.083,2.827,2.827,0,0,1,.218-1.1,2.934,2.934,0,0,1,.633-.941,2.667,2.667,0,0,1,.9-.608A2.873,2.873,0,0,1,938.74,933.128Z" transform="translate(-780.16 -932.986)" fill="#ababab"/>
</svg>
