<svg xmlns="http://www.w3.org/2000/svg" width="204.882" height="54.035" viewBox="0 0 204.882 54.035">
  <g id="carls-jr-seeklogo.com" transform="translate(-30.179 -376.092)">
    <rect id="Rectángulo_13" data-name="Rectángulo 13" width="18" height="17.803" transform="translate(43.641 393.731)" fill="#fff"/>
    <path id="Trazado_52" data-name="Trazado 52" d="M80.462,401.542l-1.557-.481-16.217-4.925L62.659,396l-.311-18a6.5,6.5,0,0,0-.142-1.1,1.1,1.1,0,0,0-.877-.793,1.675,1.675,0,0,0-1.189.51c-.114.17-10.416,15.17-10.416,15.17l-.254.368s-16.7-5.066-17.236-5.236a4.044,4.044,0,0,0-1.1-.17,1.159,1.159,0,0,0-.906.708,1.8,1.8,0,0,0,.169,1.217L41.489,403.58,31.131,418.609a2.195,2.195,0,0,0-.4,1.7,1.176,1.176,0,0,0,1.274.65l17.83-6.226,9.85,13.132,1.641,2.038a1.176,1.176,0,0,0,1.132.141,1.431,1.431,0,0,0,.708-1.1l-.312-18.312-.029-.481L77.49,404.91c1.528-.538,2.547-.906,2.632-.934a1.716,1.716,0,0,0,1.1-1.472A1.515,1.515,0,0,0,80.462,401.542Zm-20.916,5.774a.508.508,0,0,1-.708.2c-.367-.4-.877.086-.877.086-2.6,1.387-3.877,2.264-6.481,1.7a8.158,8.158,0,0,1-5.18-5.519c-.169-.566-1.613,0-1.019-1.1.34-.17.623-.227.962-.367.623-.085,1.245-1.218,1.472-.056-.142.509-.566.509-.509,1.047a7.333,7.333,0,0,0,6.481,4.444,7.621,7.621,0,0,0,4.1-1.273c.312-.482-.311-1.1.51-1.33.538.227.425.736.764,1.132C59.15,406.779,59.745,406.751,59.547,407.317ZM54.9,402.93c.169.227.594.877-.51,1.047a4.24,4.24,0,0,1-3.085-1.3c-.679-.708.169-1.019.764-.991A3.66,3.66,0,0,1,54.9,402.93ZM47.688,397.3a3.269,3.269,0,0,1,2.887-.34,5.229,5.229,0,0,1,1.1.708c.113.085.481.368.481.679a1.029,1.029,0,0,1-.283.708.923.923,0,0,1-.99.227c-.65-.056-.934-.877-1.641-.566a1.843,1.843,0,0,1-1.5-.085,1.164,1.164,0,0,1-.481-.764A.831.831,0,0,1,47.688,397.3Zm13.132,4.84a1.325,1.325,0,0,1-.821.339,1.814,1.814,0,0,1-1.273-.792c-.4-.65-1.076-.142-1.67-.481a.985.985,0,0,1-.679-.764,1.067,1.067,0,0,1,.169-.736c.17-.254.623-.283.793-.283a4.976,4.976,0,0,1,1.3.056,3.191,3.191,0,0,1,2.151,1.953A.707.707,0,0,1,60.82,402.137Z" transform="translate(0)" fill="#ababab"/>
    <g id="Grupo_43" data-name="Grupo 43" transform="translate(66.51 381.929)">
      <g id="Grupo_42" data-name="Grupo 42">
        <path id="Trazado_53" data-name="Trazado 53" d="M302.961,429.3a12.99,12.99,0,0,1-6.113,1.925c-1.1,3.962-4.1,8.66-12.34,8.66-3.057,0-5.858-1.358-6.339-3.707-.2.2-.425.4-.622.566-2.067,1.727-4.727,3.17-6.85,3.17-2.745,0-4.5-1.189-4.358-3.99-2.18,1.868-5.207,3.99-7.811,3.99-3.623,0-5.547-2.066-3.594-7.16.821-2.151,3.793-10.048,5.293-14.039.029-.084-.028-.141-.113-.141h-3.227c-1.386,3.142-9.821,21.34-17.32,21.34-2.434,0-4.1-.934-4.331-3.114-2.037,1.727-4.811,3.114-6.906,3.114-1.585,0-3.849-.341-4.811-2.859-3.057,4.133-8.831,7.387-14.123,7.387-5.01,0-12.595-1.443-12.595-11.831,0-10.613,9-28.415,24.991-28.415,7.019,0,9.509,3.594,9.509,6.142a5.08,5.08,0,0,1-2.349,4.444H222.7c1.3-1.3,1.953-2.293,1.953-3.963a3.38,3.38,0,0,0-3.4-3.509c-8.915,0-16.472,17.746-16.472,24.51,0,6.34,2.095,8.717,6.311,8.774,3.594.056,8.944-2.774,12.057-7.7.679-6.312,6.2-18.934,18.4-18.934a11.219,11.219,0,0,1,5.8,1.3l-1.217,3.113a13.585,13.585,0,0,0-4.245-.651c-8.094,0-12.34,13.5-12.34,17.18,0,.368,0,1.556,1.189,1.556,1.076,0,3.623-1.783,5.322-3.906.99-2.575,3.34-9.283,4.443-12.113h6.4c-3.453,9.029-5.179,14.067-5.491,14.859-.312.821-.283,1.245.142,1.245,1.1,0,7.472-6.651,11.943-18.255a1.978,1.978,0,0,1-1.386-2.122c0-2.434,1.953-5.717,4.67-5.717,2.122,0,2.208,2.66,1.471,4.415h5.774c1.331,0,3.792.65,2.293,4.557h0c-3.453,9.029-5.689,15.057-6,15.878s-.283,1.245.142,1.245c.963,0,5.066-3.057,7.076-4.982,2.01-5.32,8.547-22.5,9.594-25.132h6.4c-3.452,9.029-10.7,28.076-11.009,28.869-.312.821-.283,1.245.141,1.245.566,0,2.01-.679,4.047-2.434s12.171-16.359,14.152-19.84h5.774c.029,2.151.821,10.868.821,12.284,0,.453-.029,1.076-.086,1.84a11.7,11.7,0,0,0,4.812-1.161c1.416-.708,1.9-.425,1.869.254a2.983,2.983,0,0,1-1.077,1.812m55.7,4.047c-1.3,1.33-6.283,6.537-10.529,6.537-3.622,0-5.547-2.066-3.594-7.161.821-2.151,3.849-10.189,5.377-14.179h-3.283a18.25,18.25,0,0,1-14.293,12.17c-2.632,6.255-7.811,14.519-17.745,14.519-2.943,0-9.057-1.754-9.057-6.623,0-4.557,4.641-8.661,20.01-9.764.085-.2,8.349-21.736,8.349-21.736h-1.784c-8.8,0-14.207,6.2-14.207,13.189a8.051,8.051,0,0,0,1.047,3.877h-4.3a5.936,5.936,0,0,1-2.717-5.066c0-7.443,8.8-14.717,20.548-14.717h9.962l-9,23.35c4.528-1.33,7.981-3.736,10.386-9.283a2.094,2.094,0,0,1-2.094-2.293c0-2.434,1.953-5.717,4.67-5.717,2.122,0,2.208,2.66,1.472,4.415h5.774c1.329,0,3.792.65,2.292,4.557h0c-3.453,9.029-5.689,15.057-6,15.878s-.283,1.245.141,1.245c1.133,0,6.085-3.963,7.925-5.887,1.387-1.443,1.783-.566,1.783.425a3.942,3.942,0,0,1-1.132,2.264m6.679,3.764a3.164,3.164,0,0,1-3.056,2.8,2.472,2.472,0,0,1-2.519-2.8,3.164,3.164,0,0,1,3.057-2.8,2.5,2.5,0,0,1,2.518,2.8m-78.058-5.717c-2.293.057-4.84,1.387-4.84,4.218a1.853,1.853,0,0,0,2.01,1.782c3.057,0,4.755-2.8,5.689-6.056-.878,0-1.727.028-2.859.056m3.764-12.255c-1.953,2.972-4.444,6.68-6.935,10.02a15.038,15.038,0,0,1,3.284-.453c.736-.029,1.981-.056,3.311-.085a31.814,31.814,0,0,0,.425-5.209c.028-.821-.029-2.406-.085-4.274m20.688,19.331a3.414,3.414,0,0,0,3.453,3.651c4.415.113,6.992-5.207,9.341-10.614-7.444.68-12.794,2.661-12.794,6.963m-24.226-30.058a4.631,4.631,0,0,0,1.528-3.2,6.82,6.82,0,0,0-.595-2.264s1.67-.085,2.632-.085c.4,0,1.132.085,1.132.085a5.484,5.484,0,0,1-.708,4.783,4.265,4.265,0,0,1-3.226,1.981c-.679,0-1.02-.254-1.02-.736a.617.617,0,0,1,.257-.566" transform="translate(-196.8 -402.861)" fill="#ababab"/>
        <path id="Trazado_54" data-name="Trazado 54" d="M938.43,420.249a1.854,1.854,0,0,1-3.707,0,1.837,1.837,0,0,1,1.868-1.812,1.812,1.812,0,0,1,1.84,1.812m-3.255,0a1.4,1.4,0,1,0,1.415-1.444,1.407,1.407,0,0,0-1.415,1.444m1.1.933h-.425V419.37a4.221,4.221,0,0,1,.707-.056.988.988,0,0,1,.623.141.475.475,0,0,1,.17.4c0,.2-.142.34-.368.425v.029a.544.544,0,0,1,.34.452c.057.283.085.4.142.453h-.453a1.4,1.4,0,0,1-.141-.453c-.029-.2-.142-.283-.368-.283h-.2v.708h-.029Zm.029-1.019h.2c.226,0,.425-.085.425-.254s-.114-.283-.4-.283c-.113,0-.2,0-.226.028Z" transform="translate(-773.824 -415.041)" fill="#ababab"/>
      </g>
    </g>
  </g>
</svg>
