<svg xmlns="http://www.w3.org/2000/svg" width="163.359" height="63.846" viewBox="0 0 163.359 63.846">
  <g id="ogilvy-vector-logo" transform="translate(-20 -204.5)">
    <path id="Trazado_50" data-name="Trazado 50" d="M43.115,212.1C30.618,212.1,20,221.03,20,234.78c0,12.361,9.448,22.162,22.979,22.162,12.5,0,23.115-8.93,23.115-22.68C66.122,221.929,56.674,212.1,43.115,212.1Zm0,42.2c-8.141,0-13.967-8.331-13.967-19.821,0-11,5.527-19.685,13.858-19.685,8.141,0,13.967,8.331,13.967,19.821C56.974,245.589,51.447,254.3,43.115,254.3Zm129.625-25.185V231l2.5.49c.871.191,1.116.871.572,2.233l-5.745,13.8c-.245.572-.572.572-.735,0L164,233.718c-.572-1.416-.245-2.042.626-2.233L167.1,231v-1.879H144.97V231l2.5.49c.871.191,1.2.871.626,2.233l-5.527,14.539c-.245.572-.572.572-.735,0l-5.609-14.539c-.49-1.416-.245-2.042.626-2.233l2.478-.49v-1.879H125.285v1.906l1.389.3a2.434,2.434,0,0,1,1.879,1.552l9.5,23.36h4.3l9.5-23.36c.49-1.225,1.062-1.742,2.042-1.742h.381c.817,0,1.416.3,1.933,1.5l9.938,24.259-2.668,6.344c-1.743,4.22-3.022,4.982-4.656,4.982-.681,0-1.416-.109-2.178-.109a2.921,2.921,0,0,0-3.1,2.859c0,1.688,1.389,2.859,3.539,2.859,3.1,0,6.153-2.5,8.712-8.44l13.477-31.773A3.484,3.484,0,0,1,182,231.295l1.361-.245v-1.933ZM85.616,253.838l-10.373,1.307c-3.4.436-4.492-.681-4.492-2.423,0-2.042,2.233-3.676,10.019-3.676h.109c5.636,0,12.306-3.4,12.306-10.809a9.109,9.109,0,0,0-2.5-6.289,7.814,7.814,0,0,1-.735-3.839c0-5.473,3.73-8.576,7.6-8.576,1.606,0,2.124.245,2.124,1.389,0,.3-.082.572-.082.926a3.881,3.881,0,0,0,7.76-.191c0-3.1-2.8-5.418-7.95-5.418-7.106,0-12.551,4.6-12.551,11.626,0,.572.082,1.007.082,1.416a14.571,14.571,0,0,0-5.8-1.116c-5.609,0-12.306,3.4-12.306,10.809a9.7,9.7,0,0,0,5.282,8.44c-4.982.681-7.814,3.349-7.814,7.514,0,4.22,3.349,7.269,9.638,6.534l9.066-1.116c4.52-.572,6.017,1.062,6.017,3.4,0,4.111-3.839,7.406-10.019,7.406-4.9,0-6.725-1.743-6.725-4.22l.082-1.225a2.441,2.441,0,0,0-2.423-2.614,2.735,2.735,0,0,0-2.8,3.022c0,4.111,3.921,7.76,11.925,7.76,9.012,0,14.73-5.826,14.73-12.551.027-5.309-4.247-8.222-10.155-7.487ZM80.96,230.423c2.913,0,5.282,3.294,5.282,8.331,0,4.329-1.988,8.086-5.091,8.086-2.995,0-5.336-3.294-5.336-8.331-.027-4.3,1.96-8.086,5.146-8.086Z" transform="translate(0 -5.531)" fill="#ababab"/>
    <path id="Trazado_51" data-name="Trazado 51" d="M326.673,247.518V204.5l-10.945,2.8v1.307l3.1,1.007a1.031,1.031,0,0,1,.681,1.062v36.674a1.262,1.262,0,0,1-1.389,1.2l-2.777.054-2.94-.054a1.246,1.246,0,0,1-1.389-1.2v-24.8L300.1,225.328v1.307l3.1,1.007a1.031,1.031,0,0,1,.681,1.062v18.841a.823.823,0,0,1-.735.926l-2.532.3v1.988H330.43V248.77l-3.022-.3a.888.888,0,0,1-.735-.953Z" transform="translate(-203.839 0)" fill="#ababab"/>
  </g>
</svg>
