<svg id="g3143" xmlns="http://www.w3.org/2000/svg" width="154.386" height="92.446" viewBox="0 0 154.386 92.446">
  <path id="path3237" d="M1089.755-593.792a4.552,4.552,0,0,1,.87.065,1.494,1.494,0,0,1,1.3,1.867,6.124,6.124,0,0,1-1.427,3.063,9.465,9.465,0,0,1-3.917,2.675,16.269,16.269,0,0,1-4.276.942c-.091.007-.192.007-.284.01-.642.007-.723-.078-.564-.681a12.409,12.409,0,0,1,.912-2.454,12.274,12.274,0,0,1,2.793-3.653,6.969,6.969,0,0,1,4.592-1.835M1005.69-605.45a14.684,14.684,0,0,1,3.4.352,6.876,6.876,0,0,1,2.069.8,3.646,3.646,0,0,1,1.845,3.1,8,8,0,0,1-.13,1.991,22.806,22.806,0,0,1-1.431,4.745,9,9,0,0,1-4.589,4.866,13.152,13.152,0,0,1-3.125.88c-1.261.215-2.539.215-3.81.306a2.009,2.009,0,0,1-.342-.016.279.279,0,0,1-.254-.368c.036-.186.078-.372.13-.557q2.073-7.689,4.158-15.372c.186-.691.228-.717.939-.727.378,0,.763,0,1.141,0m105.19,13.068a1.443,1.443,0,0,1,.108-.736c.339-1.19.681-2.376,1.017-3.565.143-.508.078-.606-.411-.606q-3.485-.015-6.968,0c-.5,0-.57.068-.714.564-.15.515-.277,1.03-.417,1.548q-3.09,11.463-6.192,22.93c-.016.075-.046.147-.056.222-.052.31,0,.378.3.411a2.1,2.1,0,0,0,.287.006q3.485,0,6.968,0c.688,0,.707-.023.893-.7.743-2.737,1.476-5.475,2.229-8.209a40.209,40.209,0,0,1,1.695-5.446,20.33,20.33,0,0,1,2.754-4.787,6.626,6.626,0,0,1,2.5-2.034,2.959,2.959,0,0,1,2-.2,1.131,1.131,0,0,1,.85.841,4.307,4.307,0,0,1,.15.782c.111,1.972,2.887,3.295,4.618,2.444a4.45,4.45,0,0,0,1.737-1.434,4.4,4.4,0,0,0,.71-3.213,4.283,4.283,0,0,0-2.653-3.653,6.379,6.379,0,0,0-4.9-.121,10.246,10.246,0,0,0-1.929.984,20.26,20.26,0,0,0-4.035,3.516,1.258,1.258,0,0,1-.544.46M1058.873-571.6v0q5.025,0,10.054,0c.668,0,.7-.029.873-.652q.494-1.818.981-3.64c.215-.8.215-.8-.6-.8H1058.87c-.189,0-.378,0-.567,0-.479-.029-.551-.14-.313-.561a14.209,14.209,0,0,1,1.2-1.737,50.271,50.271,0,0,1,4.869-5.058c2.128-2.017,4.3-3.989,6.254-6.182a25.361,25.361,0,0,0,3.373-4.663,11.907,11.907,0,0,0,.854-1.933c.1-.329.032-.417-.3-.45-.212-.019-.42-.01-.632-.01h-18.739c-.189,0-.378,0-.567,0-.538.019-.609.062-.756.587-.248.864-.469,1.73-.7,2.594-.245.912-.234.926.714.926q4.942,0,9.884.006c.251,0,.6-.137.72.166.091.235-.189.43-.339.616a36.841,36.841,0,0,1-3.142,3.236c-2.418,2.327-4.872,4.608-7.108,7.111a30.63,30.63,0,0,0-3.572,4.735,12.346,12.346,0,0,0-1.822,4.83c-.1.873-.1.89.812.89h9.881Zm24.579.811a16.165,16.165,0,0,0,4.224-.469,16.286,16.286,0,0,0,8.085-4.693c.407-.43.407-.476.065-.971-.551-.779-1.095-1.558-1.652-2.333-.332-.466-.414-.476-.85-.111-.609.512-1.209,1.046-1.832,1.545a12.362,12.362,0,0,1-2.982,1.786,6.2,6.2,0,0,1-4.892.137,4.586,4.586,0,0,1-2.907-4.207c.01-.42,0-.841.01-1.261.019-.648.088-.724.733-.737.912-.023,1.825-.042,2.741-.1a26.648,26.648,0,0,0,7.134-1.463,11.043,11.043,0,0,0,4.572-3.031,8.684,8.684,0,0,0,2.242-4.367,5.069,5.069,0,0,0-.736-4.041,6.457,6.457,0,0,0-3.591-2.389,12.513,12.513,0,0,0-5.547-.244,18.1,18.1,0,0,0-14.066,10.295,14.06,14.06,0,0,0-1.421,8.327,9.04,9.04,0,0,0,6.107,7.6,11.446,11.446,0,0,0,4.563.73m-92.968-.812c1.141,0,2.285,0,3.422,0,.73,0,.746-.019.939-.72q1-3.715,2.011-7.443c.326-1.212.652-2.425.991-3.637.14-.508.2-.534.71-.564.437-.023.873-.065,1.31-.072a46.241,46.241,0,0,0,6.257-.492,26.318,26.318,0,0,0,6.821-1.815,12.758,12.758,0,0,0,6.537-5.954,20.464,20.464,0,0,0,1.913-5.664,8.07,8.07,0,0,0-1.47-6.436,9.572,9.572,0,0,0-3.767-2.982,19.764,19.764,0,0,0-7.916-1.77c-3.715-.134-7.427-.039-11.139-.046-.606,0-.671.065-.834.635-.025.075-.042.147-.062.222q-2.552,9.425-5.1,18.853-2.288,8.433-4.563,16.872c-.062.218-.117.44-.16.665-.046.209.052.326.27.336.153.01.306.013.456.013h3.373Zm70.954-62.265h9.145a2.3,2.3,0,0,0,.73.085c.5.013.991.01,1.483.046,2.966.2,5.922.45,8.864.854a91.861,91.861,0,0,1,18.3,4.331,60.223,60.223,0,0,1,15.027,7.629,36.39,36.39,0,0,1,9.722,9.946,26.672,26.672,0,0,1,3.878,9.868c.121.7.14,1.4.274,2.092v4.455a7.652,7.652,0,0,0-.134,1.3,31.563,31.563,0,0,1-2.75,9.158,46.369,46.369,0,0,1-8.1,11.762,69.126,69.126,0,0,1-9.1,8.219,97.992,97.992,0,0,1-18.745,11.074,128.282,128.282,0,0,1-29.454,9.262c-3.445.652-6.906,1.18-10.39,1.554q-2.7.284-5.4.476c-1.744.124-3.5.222-5.244.254a3.8,3.8,0,0,0-.505.081h-5.371a1.835,1.835,0,0,0-.622-.088c-1.975-.059-3.953-.173-5.928-.326-2.7-.212-5.377-.538-8.049-.942-.114-.016-.225-.046-.339-.072a.3.3,0,0,1-.264-.417c.039-.182.088-.368.137-.554.43-1.616.867-3.239,1.3-4.856q5.6-20.766,11.194-41.535c.212-.789.424-1.581.645-2.372.156-.544.222-.59.8-.606.078,0,.153,0,.228,0h6.684c.153,0,.307,0,.46.016.231.019.345.147.3.381-.036.209-.091.407-.146.613q-2.635,9.821-5.267,19.645c-.042.163-.084.329-.124.5-.059.257.039.407.31.427.114.006.228.013.339.013h6.86c.652,0,.685-.026.86-.668.378-1.4.746-2.8,1.118-4.2l5.338-19.919c.245-.912.254-.912-.694-.912h-14.571c-.189,0-.381,0-.57-.006-.5-.026-.564-.108-.45-.6.179-.743.368-1.479.554-2.219.746-3.054,1.476-6.111,2.506-9.083a22.288,22.288,0,0,1,1.574-3.673,8.5,8.5,0,0,1,3.262-3.438,5.284,5.284,0,0,1,3.181-.707,1.72,1.72,0,0,1,1.639,1.9,3.193,3.193,0,0,1-.385,1.365c-.225.482-.463.955-.662,1.457a4.017,4.017,0,0,0,2.373,4.931,5.433,5.433,0,0,0,7.085-3.764,4.7,4.7,0,0,0,.173-1.809,5.663,5.663,0,0,0-1.649-3.376,9.337,9.337,0,0,0-4.12-2.464,19.34,19.34,0,0,0-6.906-.58,14.592,14.592,0,0,0-9.477,4.644,23.261,23.261,0,0,0-4.416,6.889,55.533,55.533,0,0,0-2.614,7.792q-2.385,8.765-4.738,17.54-3.906,14.479-7.805,28.959-1.119,4.165-2.245,8.33c-.16.593-.218.613-.8.476-.094-.02-.186-.049-.274-.072-1.473-.394-2.936-.825-4.38-1.3a60.452,60.452,0,0,1-16.679-8.252,36.107,36.107,0,0,1-9.734-10.165,26.714,26.714,0,0,1-4.008-11.439,2.373,2.373,0,0,0-.2-.769v-4.344a2.312,2.312,0,0,0,.208-.821c.052-.476.107-.948.186-1.418a35.222,35.222,0,0,1,5.358-13.375,57.522,57.522,0,0,1,11.634-12.879,87.6,87.6,0,0,1,15.444-10.256,115.977,115.977,0,0,1,22.624-8.995,131.037,131.037,0,0,1,30.947-4.963,1.826,1.826,0,0,0,.561-.085" transform="translate(-974.477 633.869)" fill="#ababab" fill-rule="evenodd"/>
</svg>
