<svg xmlns="http://www.w3.org/2000/svg" width="193.831" height="61.674" viewBox="0 0 193.831 61.674">
  <path id="Riot_Games-Logo.wine" d="M31.406,55.92,28.6,48.7l27.08,1.392L54.468,61.647ZM37.895,0,0,17.9,5.861,44.876h7.73l-1.335-19.3,1.186-.367,4.648,19.664h8.03l-.3-23.5L27.009,21l4.062,23.872h8.5l2.006-28.391,1.186-.368,2.1,28.76H56.111L60.069,5.4ZM154.926,58.724l-.078-2.251,7.78-.092.072-2.453-7.943-.1-.079-2.278,10.465-.245.086-2.691H151.109l-.421,13.058h14.8l-.1-2.7Zm-70.4-4.8-.166,2.443,3.927.131-.05,2.48-8.218-.241.358-7.163,11.3-.261-.163-2.7H76.92L75.611,61.674h16.63L91.811,53.8Zm103.012,1.011L176.755,53.11,176.8,51.7l10.319-.385-.26-2.7H173.6l-.678,6.768,10.965,1.907.05,1.244-11.41.443-.28,2.7h15.969Zm-44.015,6.74-1.309-13.058H138.46l-5.4,6.224-5.4-6.224h-3.757L122.6,61.674h4.414l.422-8.471,5.628,5.775,5.628-5.775.423,8.471ZM124.975.8H116.14l-.8,40.381H126.01ZM152.35,32.4l-9.748.314-.323-23.749,10.2.308ZM160.893.816H133.349l-1.072,40.363h30.573Zm32.938,8.819L192.847.8H165.709l.23,7.872,8.68.3.89,32.209h10.7L183,9.26ZM88.914,9.059l8.514-.285.97,8.045-9.826,4.641Zm9.946,32.12h11.594L102.9,23.056l6.03-3.294L104.808.8h-29.6l-.974,8.751,6.62-.221L77.665,41.179H88.027l.28-10.153,7.466-4.079ZM104.5,55.788l.9-4.272,4.31-.195.9,4.287Zm7.384,5.885h4.47l-3.536-13.059H102.328L98.792,61.674h4.47l.692-3.294,7.256.094Z" fill="#ababab"/>
</svg>
