<svg xmlns="http://www.w3.org/2000/svg" xmlns:xlink="http://www.w3.org/1999/xlink" width="260.472" height="60.483" viewBox="0 0 260.472 60.483">
  <defs>
    <clipPath id="clip-path">
      <path id="path5269-7" d="M372.047-948.135H632.519v-60.476H372.048v60.476Z" transform="translate(-372.047 1008.611)" fill="#ababab"/>
    </clipPath>
  </defs>
  <g id="Grupo_41" data-name="Grupo 41" transform="translate(-951 -5514.993)">
    <g id="g5263" transform="translate(951 5515)">
      <g id="g5265" transform="translate(0 0)" clip-path="url(#clip-path)">
        <g id="g5271" transform="translate(0 22.965)">
          <path id="path5273" d="M-8.445-7.937h2.331V-17.985c0-7.89,4.9-12.123,10.508-12.123h.24v-2.46A11.258,11.258,0,0,0-6.115-25.589v-6.749H-8.445ZM184.4-13.593a10.95,10.95,0,0,1-8.1,3.766c-5.526,0-9.863-4.63-9.863-10.437v-.1c0-5.763,4.194-10.346,9.675-10.346a11.443,11.443,0,0,1,8.254,3.7l1.45-1.59a12.7,12.7,0,0,0-9.657-4.273c-7.218,0-12.226,5.855-12.226,12.609v.094A12.181,12.181,0,0,0,176.157-7.658a12.241,12.241,0,0,0,9.743-4.561l-1.5-1.375ZM14.786-11.964a9.142,9.142,0,0,1-9.144-9.284v-.094a8.844,8.844,0,0,1,9.128-9.175A9.3,9.3,0,0,1,24.347-21.3v.1a9.368,9.368,0,0,1-9.562,9.236M15.095-.909a11.768,11.768,0,0,0,8.567-3.233c1.9-1.952,2.978-4.6,2.978-9.031V-32.338H24.376v4.96c-1.27-2.723-5.113-5.376-9.837-5.376A11.378,11.378,0,0,0,3.188-21.248v.1A11.322,11.322,0,0,0,14.539-9.742c4.676,0,8.505-2.761,9.837-5.612v2.236c0,6.648-3.5,10.023-9.234,10.023A15.7,15.7,0,0,1,5.586-6.5L4.255-4.62A17.481,17.481,0,0,0,15.095-.909M143.418-7.937h2.331V-22.207c0-7.055-3.634-10.55-9.566-10.55a9.605,9.605,0,0,0-8.884,5.283v-4.864H124.97v24.4H127.3V-19.809c0-7.522,3.864-10.81,8.552-10.81,7.491,0,7.568,6.777,7.568,9.769V-7.937Zm-89.981,0H55.77V-22.207c0-7.055-3.635-10.55-9.568-10.55a9.6,9.6,0,0,0-8.884,5.283v-4.864H34.992v24.4h2.326V-19.809c0-7.522,3.865-10.81,8.557-10.81,7.487,0,7.563,6.777,7.563,9.769V-7.937ZM110.859-9.5c4.3,0,8.873-2.416,8.873-8.151V-20.9h-6.967c-5.832,0-8.765,1.5-8.765,5.756v0c0,3.294,2.9,5.646,6.859,5.646m8.832-13.486v-.334c0-4.97-3.044-7.082-7.893-7.082a16.766,16.766,0,0,0-7.516,1.884l-.841-1.9a19.461,19.461,0,0,1,8.68-2.163c3.167,0,5.721.781,7.423,2.481a9.088,9.088,0,0,1,2.387,6.746V-7.937h-2.24V-11.8c-.477.98-3.464,4.392-9.04,4.392-4.69,0-9.034-2.77-9.034-7.6v-.09c0-7.867,8.377-7.883,10.858-7.883h7.216ZM73.371-9.5c4.3,0,8.871-2.416,8.871-8.151V-20.9H75.273c-5.831,0-8.761,1.5-8.761,5.756v0c0,3.294,2.9,5.646,6.859,5.646M82.2-22.989v-.334c0-4.97-3.042-7.082-7.892-7.082a16.784,16.784,0,0,0-7.515,1.884l-.841-1.9a19.453,19.453,0,0,1,8.678-2.163c3.173,0,5.723.781,7.424,2.481a9.081,9.081,0,0,1,2.388,6.746V-7.937H82.2V-11.8c-.478.98-3.464,4.392-9.034,4.392-4.694,0-9.038-2.77-9.038-7.6v-.09c0-7.867,8.375-7.883,10.854-7.883ZM150.965-7.933V-30.194h4.872v-2.137h-4.872V-38.42h-2.324V-7.933Zm-61.386,0V-30.194h4.868v-2.143H89.579V-38.42H87.246V-7.933Zm68.61,0h2.331v-24.4h-2.331Zm-61.867,0H98.65V-38.415H96.322Zm-66.654,0H32V-32.332H29.668Zm0-27.683H32v-2.8H29.668ZM-13.943-7.937h2.331V-32.332h-2.331Zm-15.644,0h2.152l11.111-24.394h-2.584l-9.545,21.571-9.672-21.571h-2.755L-29.587-7.937ZM158.189-35.62h2.331v-2.8h-2.331ZM-13.943-38.415h2.331v2.8h-2.331Z" transform="translate(40.879 38.42)" fill="#ababab"/>
        </g>
      </g>
    </g>
    <path id="path5303-1" d="M671.071-1008.231c-5.473,0-6.805.9-8.97,3.271h0l-15.967,17.508h.048l.068,0h0c.492-.009.97,0,1.437.032h0l.12.008h0c4.722.328,8.212,2.51,11.579,4.694h0c4.034,2.615,7.893,5.232,13.487,4.654h0l.025,0h0l.03,0h0l.051-.006h.013c.22-.025.443-.054.67-.088h0l.1-.016h0a18.3,18.3,0,0,0,1.954-.422h0l13.3-29.625Z" transform="translate(521.902 6523.225)" fill="#ababab"/>
    <g id="g5317" transform="translate(1178.895 5517.849)">
      <path id="path5319" d="M-6.682-2.454c-.13-.225-.467-.381-1.067-.121-.638.278-.9.4-.92.407s-.78.4-.7-.63l.241-2.437s.1-.888-.6-.882c0,0-.367-.044-.96.477a1.59,1.59,0,0,1-.512.326.814.814,0,0,1-.493-.027.893.893,0,0,0-.561.007,1.1,1.1,0,0,0-.714,1.085l-.267,2.159a3.939,3.939,0,0,0-.067,1s.069.341.681.128c0,0,.519-.148.577-1.032a8.163,8.163,0,0,1,.4-2.073,2.219,2.219,0,0,1,.712-.782s.6-.292.589.2l-.215,1.982s-.208.982.232,1.131c0,0,.048.023-.062.082,0,0-2.856,1.217-6.534,3.26.253-2.078.684-4.978.684-4.978.062-.47-.513-.47-.513-.47-.565-.022-.643.64-.69.928s-.473,2.636-.473,2.636C-18.114.993-18.747.945-18.747.945-19.372,1.014-19-.677-19-.677a2.625,2.625,0,0,1,.7-1.517c.467-.4.512-.913.159-.929a1.948,1.948,0,0,0-1.185.6c-1.044,1.033-1.042,3.525-1.042,3.525a1.036,1.036,0,0,0,.514,1.025A2.03,2.03,0,0,0-18.277,1.8c.214-.143.183.058.183.058l-.047.635a57.24,57.24,0,0,0-8.279,5.7s-1.187.872-.745,1.445c.471.609,1.123.054,1.391-.194A43.3,43.3,0,0,1-18.23,3.685l-.158,2.045c-.069.92-.366,3.775-.366,3.775-.137,1.118.044,1.338.11,1.423a.79.79,0,0,0,1.027.177c.6-.389.3-1.322.2-1.759A6.133,6.133,0,0,1-17.5,8.183c.046-.588.386-4.561.386-4.561.006-.154.025-.374.052-.644A55.953,55.953,0,0,1-10.63-.265S-9.588-.678-8.7-.958c0,0,.293-.11.667-.219A2.922,2.922,0,0,0-6.7-1.823a.575.575,0,0,0,.016-.631m-6.925-3.418s.553-.458.3-.794c0,0-.235-.35-.891.114,0,0-.587.481-.227.821,0,0,.341.322.817-.141M-15.19-.007A1.067,1.067,0,0,0-14.411-.9s.392-2.8.41-2.9.187-.831-.33-.716a.982.982,0,0,0-.749.751l-.494,2.756-.09.559s-.131.6.475.44m-8.476-2.557c.509-.408.359-.746.359-.746-.19-.547-.882.036-.882.036-.583.419-.38.823-.38.823.255.438.9-.113.9-.113m.643,2.1s-.254,1.829-.295,2.236c0,0-.339,1.542.49,1.264a1.223,1.223,0,0,0,.773-1.124l.134-1.323a1.785,1.785,0,0,1,.818-1.4s.835-.376.581-.893c0,0-.158-.407-.652-.19a2.034,2.034,0,0,1-.576.187l-.572.073s-.616.026-.7,1.168M-24.568-.78A1.258,1.258,0,0,0-25.444.278l-.474,3.51c-.075.7.828.19.828.19a1.033,1.033,0,0,0,.436-.68l.144-.881L-24.07.042c.144-.991-.5-.822-.5-.822m1.108-7.027a8.363,8.363,0,0,1,1.44-1.974,1.533,1.533,0,0,0,.715-1.113.883.883,0,0,0-.324-.749s-.98-.8-1.774.56A57.219,57.219,0,0,0-28.447,3.169s-.1.234-.124-.42c0,0-.552-6-.574-6.221s-.006-.758-.508-.8c0,0-.592-.108-.941.781l-1.663,4.1s-.275.513.168.706c0,0,.494.281.818-.412l.768-1.65c.154-.335.267-.288.267-.288.088.018.126.353.126.353s.676,8.06.682,8.123.067.709.61.708c.395,0,.517-.442.6-.807s.81-4.2,2.03-8.333A30.429,30.429,0,0,1-23.46-7.807" transform="translate(32.341 11.876)" fill="#fff"/>
    </g>
  </g>
</svg>
