<svg xmlns="http://www.w3.org/2000/svg" width="20.154" height="22.171" viewBox="0 0 20.154 22.171">
  <g id="Icon_feather-share-2" data-name="Icon feather-share-2" transform="translate(-3.5 -2)">
    <path id="Trazado_254" data-name="Trazado 254" d="M28.551,6.026A3.026,3.026,0,1,1,25.526,3,3.026,3.026,0,0,1,28.551,6.026Z" transform="translate(-5.898 0)" fill="none" stroke="#000" stroke-linecap="round" stroke-linejoin="round" stroke-width="2"/>
    <path id="Trazado_255" data-name="Trazado 255" d="M10.551,16.526A3.026,3.026,0,1,1,7.526,13.5,3.026,3.026,0,0,1,10.551,16.526Z" transform="translate(0 -3.44)" fill="none" stroke="#000" stroke-linecap="round" stroke-linejoin="round" stroke-width="2"/>
    <path id="Trazado_256" data-name="Trazado 256" d="M28.551,27.026A3.026,3.026,0,1,1,25.526,24,3.026,3.026,0,0,1,28.551,27.026Z" transform="translate(-5.898 -6.881)" fill="none" stroke="#000" stroke-linecap="round" stroke-linejoin="round" stroke-width="2"/>
    <path id="Trazado_257" data-name="Trazado 257" d="M12.885,20.265l6.888,4.014" transform="translate(-2.747 -5.657)" fill="none" stroke="#000" stroke-linecap="round" stroke-linejoin="round" stroke-width="2"/>
    <path id="Trazado_258" data-name="Trazado 258" d="M19.763,9.765l-6.878,4.014" transform="translate(-2.747 -2.217)" fill="none" stroke="#000" stroke-linecap="round" stroke-linejoin="round" stroke-width="2"/>
  </g>
</svg>
