<svg xmlns="http://www.w3.org/2000/svg" width="60.28" height="48.981" viewBox="0 0 60.28 48.981">
  <g id="_5296514_bird_tweet_twitter_twitter_logo_icon" data-name="5296514_bird_tweet_twitter_twitter logo_icon" transform="translate(0 -47.987)">
    <rect id="Rectángulo_239" data-name="Rectángulo 239" width="47.094" height="47.094" transform="translate(6.593 48.93)" fill="none"/>
    <path id="Trazado_252" data-name="Trazado 252" d="M18.957,96.968c22.747,0,35.189-18.846,35.189-35.189,0-.535,0-1.068-.036-1.6a25.164,25.164,0,0,0,6.17-6.4,24.69,24.69,0,0,1-7.1,1.946,12.412,12.412,0,0,0,5.437-6.841,24.789,24.789,0,0,1-7.853,3,12.379,12.379,0,0,0-21.076,11.28A35.128,35.128,0,0,1,4.2,50.243,12.428,12.428,0,0,0,8.024,66.753,12.275,12.275,0,0,1,2.411,65.2v.157a12.408,12.408,0,0,0,9.922,12.124,12.35,12.35,0,0,1-5.584.212A12.407,12.407,0,0,0,18.3,86.286a24.822,24.822,0,0,1-15.359,5.3A25.154,25.154,0,0,1,0,91.412a35.017,35.017,0,0,0,18.957,5.546" transform="translate(0)" fill="#1da1f2"/>
  </g>
</svg>
