<svg xmlns="http://www.w3.org/2000/svg" width="27.736" height="27.736" viewBox="0 0 27.736 27.736">
  <g id="soical" transform="translate(0)">
    <g id="social" transform="translate(0)">
      <g id="square-flat">
        <path id="square-68" d="M701.385,600h24.966a1.384,1.384,0,0,1,1.385,1.385v24.966a1.384,1.384,0,0,1-1.385,1.385H701.385A1.383,1.383,0,0,1,700,626.351V601.385A1.384,1.384,0,0,1,701.385,600Z" transform="translate(-700 -600)" fill="#3498db" fill-rule="evenodd"/>
      </g>
      <g id="icon" transform="translate(5.6 8.626)">
        <path id="behance" d="M713.889,607.216v1.067h4.267v-1.067Zm-10.774-.555,4.924.055s2.7-.143,3.076,2a2.174,2.174,0,0,1-1.36,2.654,2.563,2.563,0,0,1,1.842,2.994c-.3,2.507-3.221,2.533-3.221,2.533h-5.262Zm2.241,4.075,2.038.013a3.717,3.717,0,0,0,.755-.078,1.271,1.271,0,0,0,.518-.256,1.21,1.21,0,0,0,.263-.435,1.763,1.763,0,0,0,.087-.513,1.125,1.125,0,0,0-.087-.446.962.962,0,0,0-.263-.355,1.248,1.248,0,0,0-.446-.234,2.173,2.173,0,0,0-.644-.085l-2.22-.013Zm0,4.306,2.226.014a4.026,4.026,0,0,0,.825-.086,1.394,1.394,0,0,0,.566-.282,1.341,1.341,0,0,0,.287-.48,1.957,1.957,0,0,0,.1-.567,1.256,1.256,0,0,0-.1-.493,1.055,1.055,0,0,0-.287-.391,1.366,1.366,0,0,0-.487-.259,2.346,2.346,0,0,0-.7-.093l-2.426-.014Zm9-1.364c0,.06,0,1.53,1.205,1.868a1.707,1.707,0,0,0,2.071-.9h1.832c-.048.221-.792,3.226-4.845,2.246-2.487-.6-2.359-3.546-2.359-3.8a3.989,3.989,0,0,1,1.012-2.608,3.613,3.613,0,0,1,2.719-1.139,3.7,3.7,0,0,1,2.682,1.005,4.862,4.862,0,0,1,.94,3.386Zm3.21-1.289a2.036,2.036,0,0,0-.139-.637,1.551,1.551,0,0,0-.323-.505,1.479,1.479,0,0,0-.494-.336,1.632,1.632,0,0,0-.643-.122,1.378,1.378,0,0,0-.593.128,1.556,1.556,0,0,0-.479.349,1.746,1.746,0,0,0-.331.508,1.848,1.848,0,0,0-.146.613Z" transform="translate(-703.115 -606.661)" fill="#fff" fill-rule="evenodd"/>
      </g>
    </g>
  </g>
</svg>
