<svg id="soical" xmlns="http://www.w3.org/2000/svg" width="27.378" height="27.378" viewBox="0 0 27.378 27.378">
  <g id="social">
    <g id="square-flat">
      <path id="square-11" d="M1.367,100H26.01a1.366,1.366,0,0,1,1.367,1.367V126.01a1.366,1.366,0,0,1-1.367,1.367H1.367A1.366,1.366,0,0,1,0,126.01V101.367A1.366,1.366,0,0,1,1.367,100Z" transform="translate(0 -100)" fill="#ce6f2d" fill-rule="evenodd"/>
    </g>
    <g id="icon" transform="translate(6.388 6.388)">
      <path id="instagram" d="M7.444,102h9.713a2.446,2.446,0,0,1,2.444,2.444v9.714a2.446,2.446,0,0,1-2.444,2.444H7.444A2.446,2.446,0,0,1,5,114.157v-9.714A2.446,2.446,0,0,1,7.444,102Zm8.939,6.084h2v6.074a1.229,1.229,0,0,1-1.227,1.227H7.444a1.229,1.229,0,0,1-1.227-1.227v-6.074h2a4.259,4.259,0,1,0,8.165,0ZM12.3,112.343A3.042,3.042,0,1,0,9.259,109.3,3.042,3.042,0,0,0,12.3,112.343Zm2.434-8.523a.6.6,0,0,1,.6-.6h2.445a.6.6,0,0,1,.6.6v2.445a.6.6,0,0,1-.6.6H15.337a.6.6,0,0,1-.6-.6Z" transform="translate(-5 -102)" fill="#fff" fill-rule="evenodd"/>
    </g>
  </g>
</svg>
