<svg xmlns="http://www.w3.org/2000/svg" width="27.736" height="27.736" viewBox="0 0 27.736 27.736">
  <g id="soical" transform="translate(0)">
    <g id="social" transform="translate(0)">
      <g id="square-flat">
        <path id="square-7" d="M601.385,0h24.966a1.384,1.384,0,0,1,1.385,1.385V26.351a1.384,1.384,0,0,1-1.385,1.385H601.385A1.384,1.384,0,0,1,600,26.351V1.385A1.384,1.384,0,0,1,601.385,0Z" transform="translate(-600)" fill="#346da6" fill-rule="evenodd"/>
      </g>
      <g id="icon" transform="translate(7.421 7.467)">
        <path id="linkedin" d="M609.748,16.944V8.485h-2.615v8.459Zm0-11.457a1.348,1.348,0,0,0-2.695,0,1.282,1.282,0,0,0,1.324,1.334h.016A1.29,1.29,0,0,0,609.748,5.487Zm4.265,11.457V12.125a1.962,1.962,0,0,1,.094-.7,1.637,1.637,0,0,1,3.161.7v4.819H619.9V12c0-2.651-1.415-3.884-3.3-3.884a2.857,2.857,0,0,0-2.6,1.454l.019-1.131h-2.628c.038.81,0,8.51,0,8.51Z" transform="translate(-607.053 -4.154)" fill="#fff" fill-rule="evenodd"/>
      </g>
    </g>
  </g>
</svg>
