<svg xmlns="http://www.w3.org/2000/svg" width="27.736" height="27.736" viewBox="0 0 27.736 27.736">
  <g id="soical" transform="translate(0)">
    <g id="social" transform="translate(0)">
      <g id="square-flat">
        <path id="square" d="M1.385,0H26.351a1.384,1.384,0,0,1,1.385,1.385V26.351a1.384,1.384,0,0,1-1.385,1.385H1.385A1.384,1.384,0,0,1,0,26.351V1.385A1.384,1.384,0,0,1,1.385,0Z" fill="#4186cd" fill-rule="evenodd"/>
      </g>
      <g id="icon" transform="translate(6.401 7.467)">
        <path id="twitter" d="M17.422,5.209a3.047,3.047,0,0,0-2.236-1.055,3.1,3.1,0,0,0-3.064,3.193,3.45,3.45,0,0,0,.079.74A8.637,8.637,0,0,1,5.886,4.6a3.435,3.435,0,0,0,.948,4.376A2.929,2.929,0,0,1,5.446,8.55c0,.014,0,.027,0,.041A3.255,3.255,0,0,0,7.9,11.817a2.884,2.884,0,0,1-1.384.047,3.113,3.113,0,0,0,2.862,2.28A5.914,5.914,0,0,1,5.577,15.53a5.838,5.838,0,0,1-.731-.047,8.268,8.268,0,0,0,4.7,1.473c5.636,0,8.718-4.9,8.718-9.157q0-.209-.009-.417a6.3,6.3,0,0,0,1.529-1.644,5.847,5.847,0,0,1-1.76.481,3.142,3.142,0,0,0,1.347-1.76A5.882,5.882,0,0,1,17.422,5.209Z" transform="translate(-4.846 -4.154)" fill="#fff" fill-rule="evenodd"/>
      </g>
    </g>
  </g>
</svg>
