<svg id="soical" xmlns="http://www.w3.org/2000/svg" width="27.736" height="27.736" viewBox="0 0 27.736 27.736">
  <g id="social">
    <g id="square-flat">
      <path id="square-16" d="M501.385,100h24.966a1.384,1.384,0,0,1,1.385,1.385v24.966a1.384,1.384,0,0,1-1.385,1.385H501.385A1.384,1.384,0,0,1,500,126.351V101.385A1.384,1.384,0,0,1,501.385,100Z" transform="translate(-500 -100)" fill="#ca4638" fill-rule="evenodd"/>
    </g>
    <g id="icon" transform="translate(5.2 7.512)">
      <path id="youtube" d="M519.8,106.94a3.837,3.837,0,0,0-.7-1.76,2.537,2.537,0,0,0-1.776-.751c-2.481-.179-6.2-.179-6.2-.179h-.008s-3.721,0-6.2.179a2.536,2.536,0,0,0-1.776.751,3.837,3.837,0,0,0-.7,1.76,26.837,26.837,0,0,0-.177,2.869v1.345a26.837,26.837,0,0,0,.177,2.869,3.837,3.837,0,0,0,.7,1.76,3.008,3.008,0,0,0,1.954.758c1.418.136,6.027.178,6.027.178s3.725-.006,6.206-.185a2.535,2.535,0,0,0,1.776-.751,3.837,3.837,0,0,0,.7-1.76,26.91,26.91,0,0,0,.177-2.869v-1.345A26.91,26.91,0,0,0,519.8,106.94Zm-10.517,5.843V107.8l4.789,2.5Z" transform="translate(-502.25 -104.25)" fill="#fff" fill-rule="evenodd"/>
    </g>
  </g>
</svg>
