<svg height='300px' width='300px'  fill="#000000" xmlns:dc="http://purl.org/dc/elements/1.1/" xmlns:cc="http://creativecommons.org/ns#" xmlns:rdf="http://www.w3.org/1999/02/22-rdf-syntax-ns#" xmlns:svg="http://www.w3.org/2000/svg" xmlns="http://www.w3.org/2000/svg" xmlns:sodipodi="http://sodipodi.sourceforge.net/DTD/sodipodi-0.dtd" xmlns:inkscape="http://www.inkscape.org/namespaces/inkscape" version="1.1" x="0px" y="0px" viewBox="0 0 100 100"><g transform="translate(0,-952.36218)"><path style="text-indent:0;text-transform:none;direction:ltr;block-progression:tb;baseline-shift:baseline;color:#000000;enable-background:accumulate;" d="m 50,961.36217 c -22.61989,0 -40.9999999,18.38015 -40.9999999,41.00003 0,22.6198 18.3801099,41 40.9999999,41 22.61989,0 41,-18.3802 41,-41 0,-22.61988 -18.38011,-41.00003 -41,-41.00003 z m 0,4 c 20.45809,0 37,16.54193 37,37.00003 0,20.4581 -16.54191,37 -37,37 -20.45809,0 -37,-16.5419 -37,-37 0,-20.4581 16.54191,-37.00003 37,-37.00003 z m -7.875,18 c -2.1758,0.052 -4.06937,1.90878 -4.125,4.5625 l 0,28.84373 c 0.0743,3.5382 3.41961,5.6844 6.34375,4 l 23.5,-14.4687 C 69.12441,1005.5094 70,1004.0589 70,1002.3622 c 0,-1.6967 -0.87559,-3.14732 -2.15625,-3.93752 l -23.5,-14.46876 c -0.73104,-0.4211 -1.49348,-0.61109 -2.21875,-0.59375 z" fill="#000000" fill-opacity="1" stroke="none" marker="none" visibility="visible" display="inline" overflow="visible"></path></g></svg>