<svg xmlns="http://www.w3.org/2000/svg" viewBox="0 0 940.5 236.25"><defs><style>.cls-1{fill:#f6f6f6;}.cls-2{fill:#faca30;}</style></defs><g id="Capa_2" data-name="Capa 2"><g id="Layer_1" data-name="Layer 1"><g id="HELO"><path id="O" class="cls-1" d="M822.6,227.25a108.9,108.9,0,1,1,108.9-108.9,109,109,0,0,1-108.9,108.9m0-226.8a117.9,117.9,0,1,0,117.9,117.9A118,118,0,0,0,822.6.45"/><polygon id="L" class="cls-1" points="526.5 0 526.5 226.8 526.5 235.5 535.5 235.5 697.5 235.5 697.5 226.5 535.5 226.5 535.5 0 526.5 0"/><polygon id="E" class="cls-1" points="267 0 267 9 267 113.4 267 122.4 267 226.8 267 235.5 276.3 235.5 438 235.5 438 226.5 276 226.5 276 122.25 405.75 122.25 405.75 113.25 276 113.25 276 9 438 9 438 0 267 0"/><polygon id="H" class="cls-1" points="162 0 162 113.25 9 113.25 9 0 0 0 0 113.4 0 122.4 0 235.5 9 235.5 9 122.25 162 122.25 162 235.5 171 235.5 171 122.4 171 113.4 171 0 162 0"/></g><polygon id="_" data-name="+" class="cls-2" points="827.25 65.25 818.25 65.25 818.25 114 769.5 114 769.5 123 818.25 123 818.25 171.75 827.25 171.75 827.25 123 876 123 876 114 827.25 114 827.25 65.25"/></g></g></svg>